<svg width="76" height="48" viewBox="0 0 76 48" fill="none" xmlns="http://www.w3.org/2000/svg">
	<path d="M61.3817 35.0968C59.5471 35.0968 57.8043 35.7706 56.4895 36.9893C55.1747 38.2222 54.4409 39.828 54.4409 41.5484C54.4409 43.2688 55.1595 44.8745 56.4895 46.1075C57.8196 47.3262 59.5471 48 61.3817 48C65.1426 48 68.2002 45.1039 68.2002 41.5484C68.2002 37.9928 65.1426 35.0968 61.3817 35.0968ZM61.3817 45.1326C59.272 45.1326 57.4985 43.4982 57.4985 41.5484C57.4985 39.5986 59.272 37.9642 61.3817 37.9642C63.4609 37.9642 65.1426 39.5699 65.1426 41.5484C65.1426 43.5269 63.4609 45.1326 61.3817 45.1326ZM63.1551 13.6057C62.8799 13.362 62.513 13.233 62.1308 13.233H54.288C53.4472 13.233 52.7592 13.8781 52.7592 14.6667V26.4229C52.7592 27.2115 53.4472 27.8566 54.288 27.8566H66.7326C67.5734 27.8566 68.2614 27.2115 68.2614 26.4229V18.552C68.2614 18.1505 68.0779 17.7634 67.7569 17.491L63.1551 13.6057ZM65.2037 24.9892H55.8168V16.086H61.5346L65.2037 19.1828V24.9892ZM24.0482 35.0968C22.2136 35.0968 20.4708 35.7706 19.156 36.9893C17.8412 38.2222 17.1074 39.828 17.1074 41.5484C17.1074 43.2688 17.8259 44.8745 19.156 46.1075C20.4861 47.3262 22.2136 48 24.0482 48C27.8091 48 30.8667 45.1039 30.8667 41.5484C30.8667 37.9928 27.8091 35.0968 24.0482 35.0968ZM24.0482 45.1326C21.9384 45.1326 20.165 43.4982 20.165 41.5484C20.165 39.5986 21.9384 37.9642 24.0482 37.9642C26.1274 37.9642 27.809 39.5699 27.809 41.5484C27.809 43.5269 26.1274 45.1326 24.0482 45.1326ZM13.851 36.8602H10.7781V33.0466C10.7781 32.2581 10.0901 31.6129 9.2493 31.6129C8.40845 31.6129 7.72049 32.2581 7.72049 33.0466V38.2939C7.72049 39.0824 8.40845 39.7276 9.2493 39.7276H13.851C14.6919 39.7276 15.3798 39.0824 15.3798 38.2939C15.3798 37.5054 14.6919 36.8602 13.851 36.8602ZM21.6021 29.0466C21.6021 28.2581 20.9141 27.6129 20.0733 27.6129H1.52881C0.687964 27.6129 0 28.2581 0 29.0466C0 29.8351 0.687964 30.4803 1.52881 30.4803H20.0733C20.9141 30.4803 21.6021 29.8495 21.6021 29.0466ZM4.63229 23.871L23.1768 23.9713C24.0176 23.9713 24.7056 23.3405 24.7209 22.552C24.7361 21.7491 24.0482 21.1039 23.2073 21.1039L4.66287 21.0036C4.64758 21.0036 4.64758 21.0036 4.64758 21.0036C3.80674 21.0036 3.11877 21.6344 3.11877 22.4229C3.10348 23.2258 3.79145 23.871 4.63229 23.871ZM7.75107 17.362H26.2955C27.1364 17.362 27.8243 16.7168 27.8243 15.9283C27.8243 15.1398 27.1364 14.4946 26.2955 14.4946H7.75107C6.91022 14.4946 6.22226 15.1398 6.22226 15.9283C6.22226 16.7168 6.91022 17.362 7.75107 17.362ZM74.5142 15.4265L63.5679 6.92473C63.2927 6.70968 62.9564 6.59498 62.5895 6.59498H49.7169V1.43369C49.7169 0.645161 49.0289 0 48.1881 0H9.2493C8.40845 0 7.72049 0.645161 7.72049 1.43369V11.9283C7.72049 12.7168 8.40845 13.362 9.2493 13.362C10.0901 13.362 10.7781 12.7168 10.7781 11.9283V2.86738H46.6746V36.8602H34.1383C33.2975 36.8602 32.6095 37.5054 32.6095 38.2939C32.6095 39.0824 33.2975 39.7276 34.1383 39.7276H52.8051C53.6459 39.7276 54.3339 39.0824 54.3339 38.2939C54.3339 37.5054 53.6459 36.8602 52.8051 36.8602H49.7322V9.46237H62.0544L72.0222 17.2043L71.9152 36.8315H70.3252C69.4844 36.8315 68.7964 37.4767 68.7964 38.2652C68.7964 39.0538 69.4844 39.6989 70.3252 39.6989H73.4287C74.2696 39.6989 74.9575 39.0681 74.9575 38.2796L75.0798 16.5448C75.0646 16.1147 74.8658 15.6989 74.5142 15.4265Z" fill="url(#paint0_linear)"/>
	<defs>
		<linearGradient id="paint0_linear" x1="-0.703862" y1="3.47438" x2="28.9329" y2="67.8885" gradientUnits="userSpaceOnUse">
			<stop stop-color="#12026D"/>
			<stop offset="0.337017" stop-color="#11022D"/>
			<stop offset="1" stop-color="#540071" stop-opacity="0.69"/>
		</linearGradient>
	</defs>
</svg>
