<svg width="61" height="57" viewBox="0 0 61 57" fill="none" xmlns="http://www.w3.org/2000/svg">
	<path d="M47.2845 11.0394C48.4325 9.87612 49.1483 8.29408 49.1483 6.54918C49.1483 2.90816 46.0626 0 42.3226 0C39.4837 0 32.9419 4.00163 30.3252 7.59612C27.6221 4.00163 21.1049 0.116327 18.3771 0.116327C14.6495 0.116327 11.5514 3.02449 11.5514 6.66551C11.5514 8.35225 12.2179 9.87612 13.2918 11.0278H0.109375V26.6737H3.71355V57H22.6355H38.0766H56.9985V26.6853H60.5904V11.0394H47.2845ZM42.3226 2.43122C44.6431 2.43122 46.5686 4.24592 46.5686 6.67714C46.5686 8.72449 45.0505 10.481 43.0879 10.8533H32.6457C31.9792 10.6671 31.7693 10.4461 31.7693 10.3182C31.7693 8.24755 39.4837 2.43122 42.3226 2.43122ZM18.3771 2.43122C21.0802 2.43122 28.9304 8.24755 28.9304 10.3182C28.9304 10.5043 28.4737 10.7137 28.1405 10.8533H17.6242C15.6616 10.481 14.1434 8.72449 14.1434 6.67714C14.1311 4.36225 16.0689 2.43122 18.3771 2.43122ZM22.6231 54.5688H6.2809V26.6853H22.6231V54.5688ZM22.6231 24.382H2.68907V13.4706H22.6355V24.382H22.6231ZM35.4846 54.5688H25.1905V13.459H35.4846V54.5688ZM54.4065 54.5688H38.0643V26.6853H54.4065V54.5688ZM57.9983 24.382H38.0643V13.4706H58.0107V24.382H57.9983Z" fill="url(#paint0_linear)"/>
	<defs>
		<linearGradient id="paint0_linear" x1="-0.457625" y1="4.12583" x2="42.5985" y2="67.6074" gradientUnits="userSpaceOnUse">
			<stop stop-color="#12026D"/>
			<stop offset="0.337017" stop-color="#11022D"/>
			<stop offset="1" stop-color="#540071" stop-opacity="0.69"/>
		</linearGradient>
	</defs>
</svg>
