<svg width="68" height="65" viewBox="0 0 68 65" fill="none" xmlns="http://www.w3.org/2000/svg">
	<g clip-path="url(#clip0)">
		<path d="M13.4089 25.9098C12.6894 25.9098 12.1055 26.4733 12.1055 27.1675C12.1055 27.8618 12.6894 28.4253 13.4089 28.4253C14.1285 28.4253 14.7124 27.8618 14.7124 27.1675C14.7124 26.4733 14.1285 25.9098 13.4089 25.9098Z" fill="url(#paint0_linear)"/>
		<path d="M60.3348 10.8167C46.1307 10.8167 38.4974 3.49279 35.989 1.08607C35.4784 0.596051 35.2221 0.350159 34.952 0.188663C34.5312 -0.0628878 33.9993 -0.0628878 33.5786 0.188663C33.3929 0.299723 33.2433 0.440718 32.8818 0.781569C31.9531 1.65697 29.7784 3.70724 26.4157 5.73662C20.8278 9.10754 14.6978 10.8167 8.19605 10.8167C7.47614 10.8167 6.89258 11.3798 6.89258 12.0745V28.575C6.89258 36.4963 9.48231 44.0422 14.3821 50.397C19.6955 57.2866 26.6239 62.2398 33.8908 64.344C34.013 64.3794 34.1393 64.3971 34.2654 64.3971C34.3916 64.3971 34.5179 64.3794 34.6401 64.344C41.907 62.2398 48.8354 57.2866 54.149 50.3969C59.0486 44.0422 61.6383 36.4963 61.6383 28.575V12.0745C61.6383 11.3798 61.0547 10.8167 60.3348 10.8167ZM59.0314 28.575C59.0314 35.9512 56.6198 42.978 52.0575 48.8953C47.1687 55.2341 40.8636 59.8123 34.2654 61.8233C27.6673 59.8123 21.3621 55.2341 16.4735 48.8954C11.9111 42.978 9.49952 35.9512 9.49952 28.575V13.3108C16.0136 13.0961 22.1634 11.2685 27.798 7.86953C30.9501 5.96717 33.1172 4.05752 34.2718 2.98566C37.0055 5.60557 44.8024 12.8892 59.0314 13.3128V28.575Z" fill="url(#paint1_linear)"/>
		<path d="M55.2635 15.5824C48.0891 14.816 41.2826 12.0146 35.0328 7.25593C34.5649 6.8996 33.9064 6.89495 33.4332 7.24448C27.2429 11.816 20.0764 14.7683 13.2538 15.5572C12.5986 15.6331 12.1055 16.1694 12.1055 16.8061V22.1364C12.1055 22.8311 12.689 23.3942 13.4089 23.3942C14.1288 23.3942 14.7124 22.8311 14.7124 22.1364V17.9041C19.6715 17.1756 26.7131 15.1485 34.2135 9.82439C40.2963 14.2718 46.8814 16.9984 53.8165 17.9419V28.575C53.8165 34.8609 51.7611 40.848 47.872 45.8897C44.1475 50.7234 39.4504 54.2568 34.2645 56.1321C29.0787 54.2569 24.3822 50.7244 20.6578 45.8917C17.52 41.8235 15.5371 37.0356 14.9236 32.0454C14.8388 31.3557 14.1909 30.8616 13.4757 30.9446C12.7609 31.0264 12.25 31.652 12.3349 32.3417C13.002 37.7682 15.1569 42.9729 18.5662 47.3932C22.704 52.7622 27.9817 56.6568 33.8291 58.6561C33.9699 58.7043 34.1172 58.7283 34.2645 58.7283C34.4117 58.7283 34.559 58.7043 34.6998 58.6561C40.5476 56.6567 45.8258 52.761 49.9637 47.391C54.1897 41.9124 56.4234 35.4059 56.4234 28.5749V16.8325C56.4234 16.1914 55.9238 15.653 55.2635 15.5824Z" fill="url(#paint2_linear)"/>
		<path d="M47.2041 27.5712C47.0507 27.1159 46.6428 26.7839 46.1518 26.7151L38.7095 25.6719L35.3825 19.1651C35.163 18.7357 34.7098 18.4639 34.2137 18.4637C33.7176 18.4637 33.2644 18.7355 33.0449 19.1648L29.7167 25.6719L22.2743 26.7151C21.7833 26.7839 21.3754 27.1159 21.222 27.5712C21.0687 28.0265 21.1966 28.5263 21.5519 28.8605L26.9372 33.9256L25.6662 41.0782C25.5823 41.55 25.7834 42.0269 26.1848 42.3083C26.4119 42.4675 26.6808 42.5485 26.951 42.5485C27.1585 42.5485 27.3668 42.5009 27.5575 42.404L34.2137 39.0266L40.8686 42.4039C41.3078 42.6266 41.8401 42.5898 42.2414 42.3083C42.6429 42.0269 42.844 41.55 42.76 41.0781L41.489 33.9255L46.8743 28.8604C47.2295 28.5264 47.3574 28.0266 47.2041 27.5712ZM39.1785 32.5858C38.8713 32.8747 38.731 33.2911 38.8036 33.6991L39.7439 38.9912L34.8202 36.4926C34.4404 36.2999 33.9866 36.2999 33.6068 36.4926L28.6816 38.9916L29.6221 33.6992C29.6947 33.2912 29.5545 32.8749 29.2472 32.586L25.2626 28.8383L30.7694 28.0665C31.194 28.007 31.561 27.7496 31.7509 27.3785L34.2133 22.5642L36.6748 27.3783C36.8646 27.7496 37.2316 28.0071 37.6563 28.0666L43.1631 28.8385L39.1785 32.5858Z" fill="url(#paint3_linear)"/>
	</g>
	<defs>
		<linearGradient id="paint0_linear" x1="12.081" y1="26.0919" x2="13.9974" y2="28.8514" gradientUnits="userSpaceOnUse">
			<stop stop-color="#12026D"/>
			<stop offset="0.337017" stop-color="#11022D"/>
			<stop offset="1" stop-color="#540071" stop-opacity="0.69"/>
		</linearGradient>
		<linearGradient id="paint1_linear" x1="6.37935" y1="4.66125" x2="58.0172" y2="65.6599" gradientUnits="userSpaceOnUse">
			<stop stop-color="#12026D"/>
			<stop offset="0.337017" stop-color="#11022D"/>
			<stop offset="1" stop-color="#540071" stop-opacity="0.69"/>
		</linearGradient>
		<linearGradient id="paint2_linear" x1="11.69" y1="10.7308" x2="53.1285" y2="60.0484" gradientUnits="userSpaceOnUse">
			<stop stop-color="#12026D"/>
			<stop offset="0.337017" stop-color="#11022D"/>
			<stop offset="1" stop-color="#540071" stop-opacity="0.69"/>
		</linearGradient>
		<linearGradient id="paint3_linear" x1="20.9134" y1="20.2071" x2="38.959" y2="47.3902" gradientUnits="userSpaceOnUse">
			<stop stop-color="#12026D"/>
			<stop offset="0.337017" stop-color="#11022D"/>
			<stop offset="1" stop-color="#540071" stop-opacity="0.69"/>
		</linearGradient>
		<clipPath id="clip0">
			<rect width="66.7376" height="64.3971" fill="white" transform="translate(0.896484)"/>
		</clipPath>
	</defs>
</svg>
