<svg xmlns="http://www.w3.org/2000/svg" xmlns:xlink="http://www.w3.org/1999/xlink" width="21" height="20" viewBox="0 0 21 20"><defs><path id="8ygia" d="M1352.13 43.85h-14.85l-.42-2.48h-3.76c-.61 0-1.1.5-1.1 1.1v1.1h3l1.95 11.26c.04.25.28.45.53.45h13c.6 0 1.1-.49 1.1-1.1v-1.1h-12.7l-.27-1.55h10.04c1.21 0 2.36-.97 2.56-2.17z"/><path id="8ygib" d="M1338.98 58.53a1.9 1.9 0 1 1 3.8 0 1.9 1.9 0 0 1-3.8 0z"/><path id="8ygic" d="M1345.57 58.53a1.9 1.9 0 1 0 3.8 0 1.9 1.9 0 0 0-3.8 0z"/></defs><g><g transform="translate(-1332 -41)"><use fill="#fff" xlink:href="#8ygia"/></g><g transform="translate(-1332 -41)"><use fill="#fff" xlink:href="#8ygib"/></g><g transform="translate(-1332 -41)"><use fill="#fff" xlink:href="#8ygic"/></g></g></svg>