<svg xmlns="http://www.w3.org/2000/svg" xmlns:xlink="http://www.w3.org/1999/xlink" width="24" height="18" viewBox="0 0 24 18"><defs><path id="p3rha" d="M565 147c0-1 1-2 2-2h20c1 0 2 1 2 2v14c0 1-1 2-2 2h-20c-1 0-2-1-2-2z"/><path id="p3rhb" d="M576.85 158.4H573c0-2.95 2.44-2.95 2.98-3.73l.06-.35c-.76-.41-1.3-1.4-1.3-2.56 0-1.52.94-2.76 2.08-2.76 1.15 0 2.08 1.24 2.08 2.76 0 1.15-.52 2.13-1.27 2.55l.07.4c.59.74 2.95.79 2.95 3.7z"/></defs><g><g transform="translate(-565 -145)"><g><use xlink:href="#p3rha"/></g><g><use fill="#fff" xlink:href="#p3rhb"/></g></g></g></svg>