<svg xmlns="http://www.w3.org/2000/svg" viewBox="2682 1180 15.867 17.517">
  <g id="clip" transform="translate(2670.1 1173.65)">
    <path id="Path_142" data-name="Path 142" d="M19.208,14.163a.618.618,0,0,0-.874-.874l-3.27,3.27a2.919,2.919,0,0,0,4.129,4.129L26.576,13.3a4.075,4.075,0,0,0-5.771-5.756l-7.368,7.368A5.242,5.242,0,1,0,20.85,22.33l3.27-3.27a.618.618,0,0,0-.874-.874l-3.27,3.27a4.006,4.006,0,1,1-5.666-5.666l7.368-7.368a2.8,2.8,0,0,1,2-.829,2.84,2.84,0,0,1,2,.829,2.8,2.8,0,0,1,.829,2,2.84,2.84,0,0,1-.829,2L18.3,19.813a1.7,1.7,0,0,1-2.381,0,1.673,1.673,0,0,1,0-2.381l3.285-3.27Z"/>
  </g>
</svg>
