<svg width="40" height="40" viewBox="0 0 40 40" fill="none" xmlns="http://www.w3.org/2000/svg">
<g clip-path="url(#clip0)">
<path d="M9.4348 19.9845C9.4348 23.6389 12.4078 26.612 16.0623 26.612C16.9238 26.612 17.6217 27.3102 17.6217 28.1714C17.6217 29.0329 16.9238 29.7308 16.0623 29.7308C10.6882 29.7308 6.31591 25.3586 6.31591 19.9845C6.31591 14.61 10.6882 10.2378 16.0623 10.2378C21.4367 10.2378 25.809 14.61 25.809 19.9845C25.809 20.8457 25.1107 21.5439 24.2495 21.5439C23.3883 21.5439 22.6901 20.8457 22.6901 19.9845C22.6901 16.33 19.7168 13.3567 16.0623 13.3567C12.4078 13.3567 9.4348 16.33 9.4348 19.9845ZM10.6601 33.7775C6.65831 29.3955 3.20251 25.6107 3.19702 19.9692C3.20526 12.8836 8.97673 7.11889 16.0623 7.11889C23.1481 7.11889 28.9193 12.8836 28.9276 19.9692C28.9288 20.8301 29.6267 21.5271 30.487 21.5268H30.4888C31.35 21.5259 32.0477 20.8267 32.0464 19.9655C32.0416 15.6998 30.3768 11.6904 27.3586 8.67559C24.3405 5.66046 20.3286 4 16.0623 4C11.7962 4 7.78441 5.66046 4.76592 8.67559C1.74804 11.6904 0.0830078 15.6998 0.078125 19.9689C0.0811768 23.0765 0.944212 25.9921 2.71697 28.8825C4.2517 31.3852 6.24572 33.5687 8.35692 35.8807C10.4266 38.1476 12.5671 40.4913 14.2764 43.1958C14.573 43.6651 15.0787 43.9221 15.596 43.9221C15.881 43.9221 16.1691 43.8443 16.4279 43.6807C17.1557 43.2205 17.373 42.2574 16.9128 41.5292C15.0561 38.5919 12.8213 36.1444 10.6601 33.7775ZM39.5913 34.5258C39.2837 34.8624 38.8625 35.033 38.4402 35.033C38.0642 35.033 37.6873 34.8981 37.3882 34.6246L37.1929 34.4461V39.6063C37.1929 42.0291 35.2233 43.9999 32.8027 43.9999H24.0393C21.6186 43.9999 19.649 42.0291 19.649 39.6063V34.5175L19.5318 34.6246C18.8961 35.206 17.9098 35.1617 17.3285 34.5261C16.7474 33.8904 16.7917 32.9038 17.4273 32.3227L25.4763 24.9637C27.1774 23.4088 29.7427 23.4088 31.4434 24.9637L36.6006 29.679C36.6576 29.7241 36.7114 29.7733 36.7614 29.8258L39.4927 32.3227C40.1284 32.9038 40.1726 33.8904 39.5913 34.5258ZM34.074 31.5945L29.3389 27.2656C28.8378 26.8076 28.0822 26.8076 27.5811 27.2656L22.7679 31.6657V39.6063C22.7679 40.3091 23.3383 40.881 24.0396 40.881H32.8027C33.5037 40.881 34.074 40.3091 34.074 39.6063V31.5945Z" fill="#8C8C8C"/>
</g>
<defs>
<clipPath id="clip0">
<rect width="40" height="40" fill="white"/>
</clipPath>
</defs>
</svg>
