<svg width="24" height="24" viewBox="0 0 24 24" xmlns="http://www.w3.org/2000/svg">
<path d="M23.0074 3.45395H18.014V2.6398C18.014 1.18421 16.8298 0 15.3742 0H10.6275C9.17188 0 7.98766 1.18421 7.98766 2.6398V3.45395H2.99424C2.62418 3.45395 2.32812 3.75 2.32812 4.12007C2.32812 4.49013 2.62418 4.78618 2.99424 4.78618H4.19819V20.4375C4.19819 22.4013 5.79687 24 7.76069 24H18.241C20.2048 24 21.8035 22.4013 21.8035 20.4375V4.78618H23.0074C23.3775 4.78618 23.6735 4.49013 23.6735 4.12007C23.6735 3.75 23.3775 3.45395 23.0074 3.45395ZM9.3199 2.6398C9.3199 1.91941 9.90707 1.33224 10.6275 1.33224H15.3742C16.0946 1.33224 16.6817 1.91941 16.6817 2.6398V3.45395H9.3199V2.6398ZM20.4712 20.4375C20.4712 21.6661 19.4696 22.6678 18.241 22.6678H7.76069C6.53207 22.6678 5.53043 21.6661 5.53043 20.4375V4.78618H20.4762V20.4375H20.4712Z"/>
<path d="M13.0021 20.2796C13.3721 20.2796 13.6682 19.9835 13.6682 19.6135V7.84043C13.6682 7.47037 13.3721 7.17432 13.0021 7.17432C12.632 7.17432 12.3359 7.47037 12.3359 7.84043V19.6085C12.3359 19.9786 12.632 20.2796 13.0021 20.2796Z"/>
<path d="M8.6544 19.5441C9.02447 19.5441 9.32052 19.248 9.32052 18.878V8.57041C9.32052 8.20035 9.02447 7.9043 8.6544 7.9043C8.28433 7.9043 7.98828 8.20035 7.98828 8.57041V18.878C7.98828 19.248 8.28927 19.5441 8.6544 19.5441Z"/>
<path d="M17.3497 19.5441C17.7198 19.5441 18.0158 19.248 18.0158 18.878V8.57041C18.0158 8.20035 17.7198 7.9043 17.3497 7.9043C16.9796 7.9043 16.6836 8.20035 16.6836 8.57041V18.878C16.6836 19.248 16.9796 19.5441 17.3497 19.5441Z"/>
</svg>
