<svg width="37" height="37" viewBox="0 0 37 37" fill="none" xmlns="http://www.w3.org/2000/svg">
<path d="M37 4.33594V30.8681L34.1094 27.9775V4.33594C34.1094 3.53904 33.461 2.89062 32.6641 2.89062H4.33594C3.53904 2.89062 2.89062 3.53904 2.89062 4.33594V32.6641C2.89062 33.461 3.53904 34.1094 4.33594 34.1094H27.9775L30.8681 37H4.33594C1.94496 37 0 35.055 0 32.6641V4.33594C0 1.94496 1.94496 0 4.33594 0H32.6641C35.055 0 37 1.94496 37 4.33594ZM24.5703 6.50391H12.502V9.39453H24.5703V6.50391ZM29.7757 27.7319L36.2875 34.2437L34.2437 36.2878L27.7319 29.776C26.4232 30.6849 24.8354 31.2188 23.125 31.2188C18.662 31.2188 15.0312 27.588 15.0312 23.125C15.0312 18.662 18.662 15.0312 23.125 15.0312C27.588 15.0312 31.2188 18.662 31.2188 23.125C31.2188 24.8354 30.6849 26.4232 29.7757 27.7319ZM28.3281 23.125C28.3281 20.2561 25.9939 17.9219 23.125 17.9219C20.2561 17.9219 17.9219 20.2561 17.9219 23.125C17.9219 25.9939 20.2561 28.3281 23.125 28.3281C25.9939 28.3281 28.3281 25.9939 28.3281 23.125Z" fill="#8C8C8C"/>
</svg>
