<svg width="12" height="12" viewBox="0 0 12 12" xmlns="http://www.w3.org/2000/svg">
	<path fill-rule="evenodd" clip-rule="evenodd" d="M11.9622 5.33377C11.9432 5.16508 11.7465 5.03833 11.5764 5.03833C11.0266 5.03833 10.5387 4.71547 10.334 4.21616C10.125 3.70476 10.2598 3.10834 10.6696 2.73245C10.7986 2.61453 10.8142 2.41714 10.706 2.28002C10.4246 1.92265 10.1048 1.59984 9.75552 1.32007C9.61876 1.21033 9.41811 1.2256 9.29953 1.35691C8.94189 1.75299 8.29948 1.90019 7.80308 1.69307C7.28649 1.47576 6.96074 0.952303 6.99262 0.390399C7.00311 0.213903 6.87412 0.0604455 6.69816 0.0399518C6.24998 -0.0118853 5.79786 -0.0134927 5.34834 0.0363799C5.17439 0.0555788 5.0454 0.20542 5.05125 0.379683C5.0708 0.936051 4.74112 1.45036 4.22967 1.65985C3.7392 1.86019 3.10131 1.71423 2.74439 1.32168C2.62642 1.19238 2.42903 1.17648 2.2916 1.2836C1.932 1.56573 1.60495 1.88881 1.32094 2.24323C1.21017 2.38102 1.22646 2.58073 1.35675 2.69927C1.77435 3.07745 1.90919 3.67904 1.69224 4.19634C1.48511 4.68953 0.972993 5.00738 0.386712 5.00738C0.196464 5.00127 0.0609548 5.12896 0.0401485 5.30193C-0.0126262 5.7527 -0.0132513 6.21201 0.0375589 6.66644C0.0564006 6.83584 0.259061 6.96148 0.431003 6.96148C0.953482 6.94813 1.45511 7.27161 1.66554 7.78368C1.8753 8.29509 1.74046 8.89115 1.33005 9.26736C1.20168 9.38527 1.18539 9.58235 1.29357 9.71947C1.57236 10.0746 1.89226 10.3977 2.24276 10.6798C2.38023 10.7905 2.58026 10.7749 2.69942 10.6436C3.0584 10.2465 3.70076 10.0996 4.1952 10.3071C4.71308 10.5238 5.03884 11.0472 5.00696 11.6094C4.99655 11.786 5.12617 11.9397 5.30141 11.9599C5.53069 11.9866 5.76134 12 5.99262 12C6.21216 12 6.43174 11.9879 6.65128 11.9635C6.82527 11.9443 6.95417 11.7945 6.94833 11.6199C6.92819 11.0638 7.25846 10.5495 7.76924 10.3404C8.26301 10.1387 8.89822 10.2863 9.25519 10.6785C9.37382 10.8075 9.56983 10.8231 9.70802 10.7163C10.0669 10.4349 10.3933 10.1121 10.6787 9.75666C10.7894 9.61919 10.7738 9.41916 10.6428 9.30067C10.2252 8.92249 10.0897 8.32081 10.3067 7.80386C10.5106 7.31724 11.0037 6.9905 11.5341 6.9905L11.6083 6.99242C11.7803 7.00639 11.9386 6.87388 11.9595 6.69827C12.0123 6.2471 12.013 5.7882 11.9622 5.33377ZM6.00936 8.01402C4.90574 8.01402 4.00803 7.11632 4.00803 6.01269C4.00803 4.90911 4.90574 4.01136 6.00936 4.01136C7.11295 4.01136 8.01065 4.90911 8.01065 6.01269C8.01065 7.11632 7.11295 8.01402 6.00936 8.01402Z"/>
</svg>
