<svg width="22" height="22" viewBox="0 0 22 22" xmlns="http://www.w3.org/2000/svg">
	<g clip-path="url(#clip0)">
		<path d="M6.60409 14.4853H18.7261C20.1006 14.4853 21.222 13.364 21.222 11.9895V6.88926C21.222 6.88473 21.222 6.87569 21.222 6.87117C21.222 6.85761 21.222 6.84856 21.222 6.835C21.222 6.82596 21.222 6.81691 21.2174 6.80787C21.2174 6.79883 21.2129 6.78526 21.2129 6.77622C21.2129 6.76718 21.2084 6.75813 21.2084 6.74909C21.2039 6.74005 21.2039 6.731 21.1993 6.71744C21.1948 6.7084 21.1948 6.69935 21.1903 6.69031C21.1858 6.68127 21.1858 6.67223 21.1813 6.66318C21.1767 6.65414 21.1722 6.6451 21.1677 6.63153C21.1632 6.62249 21.1587 6.61345 21.1541 6.60893C21.1496 6.59988 21.1451 6.59084 21.1406 6.5818C21.136 6.57275 21.1315 6.56823 21.127 6.55919C21.1225 6.55015 21.1134 6.5411 21.1089 6.53206C21.1044 6.52302 21.0999 6.5185 21.0908 6.50945C21.0863 6.50041 21.0773 6.49589 21.0727 6.48685C21.0682 6.4778 21.0592 6.47328 21.0547 6.46424C21.0501 6.4552 21.0411 6.45067 21.0366 6.44615C21.0275 6.43711 21.023 6.43259 21.014 6.42355C21.0049 6.41902 21.0004 6.40998 20.9914 6.40546C20.9823 6.40094 20.9733 6.3919 20.9642 6.38737C20.9552 6.38285 20.9507 6.37833 20.9416 6.37381C20.9326 6.36929 20.9235 6.36477 20.9145 6.35572C20.9055 6.3512 20.8964 6.34668 20.8874 6.34216C20.8783 6.33764 20.8693 6.33312 20.8602 6.32859C20.8512 6.32407 20.8422 6.31955 20.8331 6.31503C20.8241 6.31051 20.815 6.31051 20.806 6.30599C20.7969 6.30147 20.7834 6.29695 20.7743 6.29695C20.7653 6.29695 20.7562 6.29242 20.7517 6.29242C20.7382 6.2879 20.7291 6.2879 20.7156 6.2879C20.711 6.2879 20.7065 6.28338 20.6975 6.28338L5.33356 4.16282V2.01965C5.33356 1.99704 5.33356 1.97443 5.32904 1.95635C5.32904 1.95183 5.32904 1.9473 5.32452 1.93826C5.32452 1.9247 5.31999 1.91113 5.31999 1.89757C5.31547 1.884 5.31547 1.87496 5.31095 1.8614C5.31095 1.85235 5.30643 1.84783 5.30643 1.83879C5.30191 1.82522 5.29739 1.81166 5.29287 1.7981C5.29287 1.79357 5.28834 1.78453 5.28834 1.78001C5.28382 1.76645 5.2793 1.7574 5.27026 1.74384C5.26574 1.73932 5.26574 1.73027 5.26122 1.72575C5.25669 1.71671 5.25217 1.70767 5.24313 1.69862C5.23861 1.68958 5.23409 1.68506 5.22957 1.67602C5.22504 1.66697 5.22052 1.66245 5.216 1.65341C5.21148 1.64437 5.20244 1.63532 5.19792 1.62628C5.19339 1.62176 5.18887 1.61724 5.18435 1.61272C5.17531 1.60367 5.16626 1.59463 5.15722 1.58559C5.1527 1.58107 5.14818 1.57654 5.14366 1.57202C5.13461 1.56298 5.12557 1.55394 5.11201 1.54489C5.10749 1.54037 5.09844 1.53585 5.09392 1.53133C5.08488 1.52229 5.07584 1.51777 5.06679 1.50872C5.05323 1.49968 5.03966 1.49064 5.03062 1.48612C5.0261 1.48159 5.02158 1.48159 5.01706 1.47707C4.99897 1.46803 4.97636 1.45899 4.95828 1.44994L1.62596 0.0482925C1.31398 -0.0828297 0.956789 0.0618569 0.825667 0.373837C0.694545 0.685818 0.839231 1.04301 1.15121 1.17414L4.10824 2.42206V5.18919V5.62777V8.99173V11.9985V15.7965C4.10824 17.0625 5.05775 18.1115 6.28306 18.2698C6.06151 18.6405 5.93039 19.0746 5.93039 19.5358C5.93039 20.8967 7.03815 22 8.39458 22C9.75102 22 10.8588 20.8922 10.8588 19.5358C10.8588 19.0836 10.7367 18.6541 10.5197 18.2924H16.0087C15.7917 18.6586 15.6696 19.0836 15.6696 19.5358C15.6696 20.8967 16.7774 22 18.1338 22C19.4902 22 20.598 20.8922 20.598 19.5358C20.598 18.1793 19.4902 17.0716 18.1338 17.0716H6.60409C5.89874 17.0716 5.32904 16.4973 5.32904 15.7965V14.1417C5.6998 14.3587 6.13838 14.4853 6.60409 14.4853ZM9.64251 19.5312C9.64251 20.2185 9.08185 20.7746 8.39911 20.7746C7.71637 20.7746 7.1557 20.214 7.1557 19.5312C7.1557 18.8485 7.71637 18.2878 8.39911 18.2878C9.08185 18.2878 9.64251 18.844 9.64251 19.5312ZM19.3817 19.5312C19.3817 20.2185 18.8211 20.7746 18.1383 20.7746C17.4556 20.7746 16.8949 20.214 16.8949 19.5312C16.8949 18.8485 17.4556 18.2878 18.1383 18.2878C18.8211 18.2878 19.3817 18.844 19.3817 19.5312ZM18.7261 13.2645H6.60409C5.89874 13.2645 5.32904 12.6903 5.32904 11.9895V8.98269V5.61873V5.39265L20.0012 7.41374V11.9849C20.0012 12.6948 19.4269 13.2645 18.7261 13.2645Z"/>
	</g>
	<defs>
		<clipPath id="clip0">
			<rect width="22" height="22" transform="matrix(1 0 0 -1 0 22)"/>
		</clipPath>
	</defs>
</svg>
