<svg width="42" height="42" viewBox="0 0 42 42" fill="none" xmlns="http://www.w3.org/2000/svg">
<path d="M38.7188 25C38.7188 26.1661 39.5461 27.1802 40.6859 27.4116C41.4505 27.5667 42 28.239 42 29.0192V33.2031C42 35.7195 40.5318 38.0455 38.2599 39.1289C37.4418 39.5189 36.4626 39.1722 36.0726 38.3544C35.6826 37.5364 36.0297 36.5574 36.8474 36.1675C37.9843 35.6253 38.7188 34.4618 38.7188 33.2031V30.1885C36.7577 29.2544 35.4375 27.2478 35.4375 25C35.4375 22.7522 36.7577 20.7456 38.7188 19.8115V16.7969C38.7188 14.9877 37.2467 13.5156 35.4375 13.5156H30.3516C30.3516 14.4218 29.6171 15.1562 28.7109 15.1562C27.8047 15.1562 27.0703 14.4218 27.0703 13.5156H6.5625C4.75333 13.5156 3.28125 14.9877 3.28125 16.7969V19.8115C5.24231 20.7456 6.5625 22.7522 6.5625 25C6.5625 27.2478 5.24231 29.2544 3.28125 30.1885V33.2031C3.28125 35.0123 4.75333 36.4844 6.5625 36.4844H27.0703C27.0703 35.5782 27.8047 34.8438 28.7109 34.8438C29.6171 34.8438 30.3516 35.5782 30.3516 36.4844V38.125C30.3516 39.0312 29.6171 39.7656 28.7109 39.7656H6.5625C2.94383 39.7656 0 36.8218 0 33.2031V29.0192C0 28.239 0.549545 27.5667 1.3141 27.4116C2.45389 27.1802 3.28125 26.1661 3.28125 25C3.28125 23.8339 2.45389 22.8198 1.3141 22.5884C0.549545 22.4333 0 21.761 0 20.9808V16.7969C0 13.1782 2.94383 10.2344 6.5625 10.2344H35.4375C39.0562 10.2344 42 13.1782 42 16.7969V20.9808C42 21.761 41.4505 22.4333 40.6859 22.5884C39.5461 22.8198 38.7188 23.8339 38.7188 25ZM28.7109 17.6172C27.8047 17.6172 27.0703 18.3516 27.0703 19.2578C27.0703 20.164 27.8047 20.8984 28.7109 20.8984C29.6171 20.8984 30.3516 20.164 30.3516 19.2578C30.3516 18.3516 29.6171 17.6172 28.7109 17.6172ZM28.7109 23.3594C27.8047 23.3594 27.0703 24.0938 27.0703 25C27.0703 25.9062 27.8047 26.6406 28.7109 26.6406C29.6171 26.6406 30.3516 25.9062 30.3516 25C30.3516 24.0938 29.6171 23.3594 28.7109 23.3594ZM28.7109 29.1016C27.8047 29.1016 27.0703 29.836 27.0703 30.7422C27.0703 31.6484 27.8047 32.3828 28.7109 32.3828C29.6171 32.3828 30.3516 31.6484 30.3516 30.7422C30.3516 29.836 29.6171 29.1016 28.7109 29.1016ZM14.1094 20.0781C14.1094 18.7188 13.0074 17.6172 11.6484 17.6172C10.2895 17.6172 9.1875 18.7188 9.1875 20.0781C9.1875 21.4374 10.2895 22.5391 11.6484 22.5391C13.0074 22.5391 14.1094 21.4374 14.1094 20.0781ZM20.8359 32.3828C22.1949 32.3828 23.2969 31.2812 23.2969 29.9219C23.2969 28.5626 22.1949 27.4609 20.8359 27.4609C19.477 27.4609 18.375 28.5626 18.375 29.9219C18.375 31.2812 19.477 32.3828 20.8359 32.3828ZM10.6237 32.0233C10.9262 32.2652 11.2879 32.3828 11.6475 32.3828C12.1288 32.3828 12.6056 32.1723 12.9295 31.7669L22.117 20.2826C22.6829 19.575 22.5682 18.5426 21.8607 17.9767C21.1532 17.4105 20.1207 17.5255 19.5548 18.2331L10.3673 29.7174C9.80113 30.425 9.91617 31.4574 10.6237 32.0233Z" fill="#8C8C8C"/>
</svg>
