<svg width="26" height="26" viewBox="0 0 26 26" xmlns="http://www.w3.org/2000/svg">
	<path d="M25.3381 17.2628C24.9726 17.2628 24.6762 17.5592 24.6762 17.9247V20.4538C24.6762 21.9136 23.4886 23.1013 22.0288 23.1013H3.97125C2.51144 23.1013 1.32377 21.9136 1.32377 20.4538V17.9247C1.32377 17.5592 1.02746 17.2628 0.661883 17.2628C0.296309 17.2628 0 17.5592 0 17.9247V20.4538C0 22.6435 1.78151 24.4251 3.97125 24.4251H22.0288C24.2185 24.4251 26 22.6435 26 20.4538V17.9247C26 17.5592 25.7037 17.2628 25.3381 17.2628Z"/>
	<path d="M21.3207 19.8707H4.68141C4.31594 19.8707 4.01953 20.1671 4.01953 20.5326C4.01953 20.8981 4.31584 21.1945 4.68141 21.1945H21.3207C21.6862 21.1945 21.9825 20.8982 21.9825 20.5326C21.9825 20.1671 21.6862 19.8707 21.3207 19.8707Z"/>
	<path d="M19.6992 10.559C19.4557 10.2864 19.0373 10.2627 18.7646 10.5063L13.662 15.0646V2.23683C13.662 1.87136 13.3657 1.57495 13.0001 1.57495C12.6346 1.57495 12.3382 1.87126 12.3382 2.23683V15.0646L7.23563 10.5063C6.96309 10.2628 6.54465 10.2865 6.30105 10.559C6.05761 10.8317 6.08112 11.2501 6.35371 11.4936L11.8977 16.4461C12.2119 16.7269 12.6059 16.8672 13.0001 16.8672C13.3941 16.8672 13.7881 16.7269 14.1024 16.4463L19.6464 11.4936C19.9191 11.2499 19.9427 10.8315 19.6992 10.559Z"/>
</svg>
