<svg width="40" height="26" viewBox="0 0 40 26" fill="none" xmlns="http://www.w3.org/2000/svg">
<path d="M32.7021 18.5608C31.7247 18.5608 30.7962 18.9171 30.0957 19.5616C29.3952 20.2137 29.0043 21.0629 29.0043 21.9727C29.0043 22.8825 29.3871 23.7317 30.0957 24.3838C30.8043 25.0283 31.7247 25.3846 32.7021 25.3846C34.7058 25.3846 36.3348 23.853 36.3348 21.9727C36.3348 20.0924 34.7058 18.5608 32.7021 18.5608ZM32.7021 23.8682C31.5781 23.8682 30.6333 23.0039 30.6333 21.9727C30.6333 20.9415 31.5781 20.0772 32.7021 20.0772C33.8098 20.0772 34.7058 20.9264 34.7058 21.9727C34.7058 23.019 33.8098 23.8682 32.7021 23.8682ZM33.6469 7.19534C33.5003 7.06644 33.3048 6.99821 33.1012 6.99821H28.9228C28.4749 6.99821 28.1083 7.3394 28.1083 7.75641V13.9737C28.1083 14.3907 28.4749 14.7319 28.9228 14.7319H35.5528C36.0008 14.7319 36.3673 14.3907 36.3673 13.9737V9.81114C36.3673 9.59884 36.2696 9.39413 36.0986 9.25007L33.6469 7.19534ZM34.7383 13.2155H29.7373V8.50703H32.7835L34.7383 10.1447V13.2155ZM12.8121 18.5608C11.8347 18.5608 10.9061 18.9171 10.2057 19.5616C9.50519 20.2137 9.11423 21.0629 9.11423 21.9727C9.11423 22.8825 9.49705 23.7317 10.2057 24.3838C10.9143 25.0283 11.8347 25.3846 12.8121 25.3846C14.8157 25.3846 16.4447 23.853 16.4447 21.9727C16.4447 20.0924 14.8157 18.5608 12.8121 18.5608ZM12.8121 23.8682C11.688 23.8682 10.7432 23.0039 10.7432 21.9727C10.7432 20.9415 11.688 20.0772 12.8121 20.0772C13.9198 20.0772 14.8157 20.9264 14.8157 21.9727C14.8157 23.019 13.9198 23.8682 12.8121 23.8682ZM7.37935 19.4934H5.74221V17.4766C5.74221 17.0596 5.37569 16.7184 4.92771 16.7184C4.47974 16.7184 4.11322 17.0596 4.11322 17.4766V20.2516C4.11322 20.6686 4.47974 21.0098 4.92771 21.0098H7.37935C7.82733 21.0098 8.19385 20.6686 8.19385 20.2516C8.19385 19.8346 7.82733 19.4934 7.37935 19.4934ZM11.5089 15.3612C11.5089 14.9442 11.1423 14.603 10.6944 14.603H0.814498C0.366524 14.603 0 14.9442 0 15.3612C0 15.7782 0.366524 16.1194 0.814498 16.1194H10.6944C11.1423 16.1194 11.5089 15.7858 11.5089 15.3612ZM2.46793 12.6241L12.3478 12.6771C12.7958 12.6771 13.1623 12.3435 13.1704 11.9265C13.1786 11.5019 12.8121 11.1607 12.3641 11.1607L2.48422 11.1077C2.47607 11.1077 2.47607 11.1077 2.47607 11.1077C2.0281 11.1077 1.66158 11.4413 1.66158 11.8583C1.65343 12.2829 2.01996 12.6241 2.46793 12.6241ZM4.12951 9.18183H14.0094C14.4573 9.18183 14.8239 8.84064 14.8239 8.42363C14.8239 8.00662 14.4573 7.66542 14.0094 7.66542H4.12951C3.68153 7.66542 3.31501 8.00662 3.31501 8.42363C3.31501 8.84064 3.68153 9.18183 4.12951 9.18183ZM39.6986 8.15826L33.8668 3.66212C33.7202 3.54839 33.541 3.48773 33.3456 3.48773H26.4875V0.758202C26.4875 0.341191 26.121 0 25.673 0H4.92771C4.47974 0 4.11322 0.341191 4.11322 0.758202V6.30824C4.11322 6.72526 4.47974 7.06645 4.92771 7.06645C5.37569 7.06645 5.74221 6.72526 5.74221 6.30824V1.5164H24.8666V19.4934H18.1877C17.7398 19.4934 17.3732 19.8346 17.3732 20.2516C17.3732 20.6686 17.7398 21.0098 18.1877 21.0098H28.1328C28.5807 21.0098 28.9473 20.6686 28.9473 20.2516C28.9473 19.8346 28.5807 19.4934 28.1328 19.4934H26.4956V5.00414H33.0605L38.371 9.09843L38.314 19.4782H37.4669C37.0189 19.4782 36.6524 19.8194 36.6524 20.2364C36.6524 20.6534 37.0189 20.9946 37.4669 20.9946H39.1203C39.5683 20.9946 39.9348 20.661 39.9348 20.244L40 8.74965C39.9919 8.52219 39.886 8.30231 39.6986 8.15826Z" fill="#8C8C8C"/>
</svg>
