<svg width="26" height="16" viewBox="0 0 26 16" xmlns="http://www.w3.org/2000/svg">
<path d="M20.9234 11.6989C20.298 11.6989 19.704 11.9235 19.2558 12.3297C18.8076 12.7407 18.5575 13.276 18.5575 13.8495C18.5575 14.4229 18.8024 14.9582 19.2558 15.3692C19.7092 15.7754 20.298 16 20.9234 16C22.2054 16 23.2477 15.0346 23.2477 13.8495C23.2477 12.6643 22.2054 11.6989 20.9234 11.6989ZM20.9234 15.0442C20.2042 15.0442 19.5997 14.4994 19.5997 13.8495C19.5997 13.1995 20.2042 12.6547 20.9234 12.6547C21.6321 12.6547 22.2054 13.19 22.2054 13.8495C22.2054 14.509 21.6321 15.0442 20.9234 15.0442ZM21.5279 4.53524C21.4341 4.454 21.309 4.41099 21.1788 4.41099H18.5054C18.2187 4.41099 17.9842 4.62604 17.9842 4.88889V8.80765C17.9842 9.07049 18.2187 9.28554 18.5054 9.28554H22.7474C23.034 9.28554 23.2685 9.07049 23.2685 8.80765V6.18399C23.2685 6.05018 23.206 5.92115 23.0965 5.83035L21.5279 4.53524ZM22.2262 8.32975H19.0265V5.36201H20.9755L22.2262 6.39426V8.32975ZM8.19739 11.6989C7.57203 11.6989 6.97794 11.9235 6.52977 12.3297C6.0816 12.7407 5.83145 13.276 5.83145 13.8495C5.83145 14.4229 6.07639 14.9582 6.52977 15.3692C6.98315 15.7754 7.57203 16 8.19739 16C9.47937 16 10.5216 15.0346 10.5216 13.8495C10.5216 12.6643 9.47937 11.6989 8.19739 11.6989ZM8.19739 15.0442C7.47823 15.0442 6.87372 14.4994 6.87372 13.8495C6.87372 13.1995 7.47823 12.6547 8.19739 12.6547C8.90613 12.6547 9.47937 13.19 9.47937 13.8495C9.47937 14.509 8.90613 15.0442 8.19739 15.0442ZM4.72145 12.2867H3.67397V11.0155C3.67397 10.7527 3.43946 10.5376 3.15284 10.5376C2.86622 10.5376 2.63171 10.7527 2.63171 11.0155V12.7646C2.63171 13.0275 2.86622 13.2425 3.15284 13.2425H4.72145C5.00807 13.2425 5.24258 13.0275 5.24258 12.7646C5.24258 12.5018 5.00807 12.2867 4.72145 12.2867ZM7.36358 9.6822C7.36358 9.41935 7.12907 9.2043 6.84245 9.2043H0.521131C0.234509 9.2043 0 9.41935 0 9.6822C0 9.94504 0.234509 10.1601 0.521131 10.1601H6.84245C7.12907 10.1601 7.36358 9.94982 7.36358 9.6822ZM1.57903 7.95699L7.90034 7.99044C8.18697 7.99044 8.42148 7.78017 8.42669 7.51732C8.4319 7.2497 8.19739 7.03465 7.91077 7.03465L1.58945 7.00119C1.58424 7.00119 1.58424 7.00119 1.58424 7.00119C1.29762 7.00119 1.06311 7.21147 1.06311 7.47431C1.0579 7.74193 1.2924 7.95699 1.57903 7.95699ZM2.64213 5.78733H8.96345C9.25007 5.78733 9.48458 5.57228 9.48458 5.30944C9.48458 5.04659 9.25007 4.83154 8.96345 4.83154H2.64213C2.35551 4.83154 2.121 5.04659 2.121 5.30944C2.121 5.57228 2.35551 5.78733 2.64213 5.78733ZM25.3999 5.14217L21.6686 2.30824C21.5748 2.23656 21.4602 2.19833 21.3351 2.19833H16.9472V0.477897C16.9472 0.215054 16.7127 0 16.426 0H3.15284C2.86622 0 2.63171 0.215054 2.63171 0.477897V3.97611C2.63171 4.23895 2.86622 4.454 3.15284 4.454C3.43946 4.454 3.67397 4.23895 3.67397 3.97611V0.955795H15.9101V12.2867H11.6369C11.3502 12.2867 11.1157 12.5018 11.1157 12.7646C11.1157 13.0275 11.3502 13.2425 11.6369 13.2425H17.9999C18.2865 13.2425 18.521 13.0275 18.521 12.7646C18.521 12.5018 18.2865 12.2867 17.9999 12.2867H16.9524V3.15412H21.1527L24.5505 5.73477L24.514 12.2772H23.972C23.6854 12.2772 23.4509 12.4922 23.4509 12.7551C23.4509 13.0179 23.6854 13.233 23.972 13.233H25.0299C25.3165 13.233 25.551 13.0227 25.551 12.7599L25.5927 5.51493C25.5875 5.37156 25.5198 5.23297 25.3999 5.14217Z"/>
</svg>
