<svg width="35" height="33" viewBox="0 0 35 33" fill="none" xmlns="http://www.w3.org/2000/svg">
<path d="M27.3 6.30565C27.9643 5.6412 28.3786 4.73754 28.3786 3.74086C28.3786 1.66113 26.5929 0 24.4286 0C22.7857 0 19 2.28571 17.4857 4.33887C15.9214 2.28571 12.15 0.0664452 10.5714 0.0664452C8.41429 0.0664452 6.62143 1.72758 6.62143 3.80731C6.62143 4.77076 7.00714 5.6412 7.62857 6.299H0V15.2359H2.08571V32.5581H13.0357H21.9714H32.9214V15.2425H35V6.30565H27.3ZM24.4286 1.3887C25.7714 1.3887 26.8857 2.42525 26.8857 3.81395C26.8857 4.98339 26.0071 5.98671 24.8714 6.19934H18.8286C18.4429 6.09302 18.3214 5.96678 18.3214 5.89369C18.3214 4.71096 22.7857 1.3887 24.4286 1.3887ZM10.5714 1.3887C12.1357 1.3887 16.6786 4.71096 16.6786 5.89369C16.6786 6 16.4143 6.1196 16.2214 6.19934H10.1357C9 5.98671 8.12143 4.98339 8.12143 3.81395C8.11429 2.49169 9.23571 1.3887 10.5714 1.3887ZM13.0286 31.1694H3.57143V15.2425H13.0286V31.1694ZM13.0286 13.9269H1.49286V7.69435H13.0357V13.9269H13.0286ZM20.4714 31.1694H14.5143V7.68771H20.4714V31.1694ZM31.4214 31.1694H21.9643V15.2425H31.4214V31.1694ZM33.5 13.9269H21.9643V7.69435H33.5071V13.9269H33.5Z" fill="#8C8C8C"/>
</svg>
