<svg width="40" height="39" viewBox="0 0 40 39" fill="none" xmlns="http://www.w3.org/2000/svg">
<g clip-path="url(#clip0)">
<path d="M7.5 15.4219C7.06875 15.4219 6.71875 15.7573 6.71875 16.1706C6.71875 16.5839 7.06875 16.9193 7.5 16.9193C7.93125 16.9193 8.28125 16.5839 8.28125 16.1706C8.28125 15.7573 7.93125 15.4219 7.5 15.4219Z" fill="#8C8C8C"/>
<path d="M35.625 6.4388C27.1116 6.4388 22.5365 2.07913 21.033 0.646501C20.727 0.354808 20.5734 0.208438 20.4115 0.112305C20.1593 -0.0374349 19.8405 -0.0374349 19.5884 0.112305C19.477 0.178415 19.3873 0.262344 19.1707 0.465241C18.6141 0.986335 17.3106 2.20679 15.2952 3.41481C11.946 5.4214 8.27187 6.4388 4.375 6.4388C3.94352 6.4388 3.59375 6.77399 3.59375 7.1875V17.0097C3.59375 21.725 5.14594 26.2168 8.08266 29.9996C11.2673 34.1007 15.4199 37.0492 19.7755 38.3017C19.8487 38.3228 19.9244 38.3333 20 38.3333C20.0756 38.3333 20.1513 38.3228 20.2245 38.3017C24.5801 37.0492 28.7327 34.1007 31.9174 29.9995C34.8541 26.2168 36.4062 21.725 36.4062 17.0097V7.1875C36.4062 6.77399 36.0565 6.4388 35.625 6.4388ZM34.8438 17.0097C34.8438 21.4005 33.3984 25.5833 30.6639 29.1056C27.7337 32.8789 23.9547 35.6042 20 36.8013C16.0453 35.6042 12.2662 32.8789 9.33617 29.1057C6.60164 25.5833 5.15625 21.4005 5.15625 17.0097V7.92347C9.06055 7.79567 12.7465 6.70773 16.1237 4.68445C18.0129 3.55205 19.3118 2.4153 20.0038 1.77726C21.6423 3.3368 26.3155 7.67251 34.8438 7.92467V17.0097Z" fill="#8C8C8C"/>
<path d="M32.586 9.2776C28.2859 8.82142 24.2064 7.15385 20.4605 4.32115C20.1801 4.10904 19.7854 4.10627 19.5018 4.31433C15.7916 7.03563 11.4962 8.79297 7.40703 9.26263C7.0143 9.30778 6.71875 9.62702 6.71875 10.006V13.179C6.71875 13.5925 7.06852 13.9277 7.5 13.9277C7.93148 13.9277 8.28125 13.5925 8.28125 13.179V10.6596C11.2535 10.226 15.474 9.0193 19.9694 5.85006C23.6152 8.49746 27.5621 10.1205 31.7187 10.6822V17.0117C31.7187 20.7534 30.4868 24.3173 28.1559 27.3185C25.9235 30.1958 23.1083 32.2991 20 33.4154C16.8919 32.2992 14.077 30.1964 11.8447 27.3197C9.96398 24.898 8.77555 22.0479 8.40781 19.0775C8.35703 18.6669 7.96867 18.3728 7.54 18.4222C7.11156 18.4709 6.80539 18.8433 6.85625 19.2539C7.25609 22.484 8.54766 25.5822 10.5911 28.2135C13.0711 31.4094 16.2344 33.7278 19.7391 34.9179C19.8234 34.9466 19.9117 34.9609 20 34.9609C20.0883 34.9609 20.1766 34.9466 20.2609 34.9179C23.7659 33.7277 26.9294 31.4087 29.4095 28.2122C31.9424 24.9509 33.2812 21.0778 33.2812 17.0116V10.0217C33.2812 9.64012 32.9818 9.3196 32.586 9.2776Z" fill="#8C8C8C"/>
<path d="M27.7554 16.4135C27.6635 16.1425 27.419 15.9449 27.1247 15.9039L22.6641 15.283L20.67 11.4097C20.5385 11.1541 20.2668 10.9923 19.9695 10.9922C19.6722 10.9922 19.4005 11.154 19.269 11.4095L17.2742 15.283L12.8135 15.9039C12.5192 15.9449 12.2747 16.1425 12.1828 16.4135C12.0909 16.6845 12.1675 16.9821 12.3805 17.181L15.6082 20.1961L14.8465 24.4538C14.7961 24.7346 14.9167 25.0185 15.1573 25.186C15.2934 25.2808 15.4546 25.329 15.6165 25.329C15.7409 25.329 15.8657 25.3006 15.98 25.243L19.9695 23.2325L23.9582 25.2429C24.2215 25.3755 24.5404 25.3536 24.781 25.186C25.0216 25.0185 25.1422 24.7346 25.0919 24.4537L24.3301 20.196L27.5578 17.1809C27.7707 16.9822 27.8473 16.6846 27.7554 16.4135ZM22.9452 19.3986C22.7611 19.5706 22.677 19.8184 22.7205 20.0612L23.2841 23.2115L20.333 21.7241C20.1054 21.6094 19.8334 21.6094 19.6058 21.7241L16.6538 23.2117L17.2175 20.0613C17.261 19.8184 17.1769 19.5706 16.9928 19.3986L14.6046 17.1678L17.9051 16.7084C18.1596 16.6729 18.3796 16.5198 18.4934 16.2988L19.9693 13.433L21.4446 16.2987C21.5583 16.5198 21.7783 16.673 22.0329 16.7084L25.3334 17.1679L22.9452 19.3986Z" fill="#8C8C8C"/>
</g>
<defs>
<clipPath id="clip0">
<rect width="40" height="38.3333" fill="white"/>
</clipPath>
</defs>
</svg>
