<svg width="20" height="20" viewBox="0 0 20 20" xmlns="http://www.w3.org/2000/svg">
	<path d="M19.1921 9.19211H0.807891C0.361719 9.19211 0 9.55379 0 10C0 10.4462 0.361719 10.8079 0.807891 10.8079H19.1921C19.6383 10.8079 20 10.4462 20 10C20 9.55383 19.6383 9.19211 19.1921 9.19211Z"/>
	<path d="M19.1921 3.06403H0.807891C0.361719 3.06403 0 3.42574 0 3.87192C0 4.31809 0.361719 4.67981 0.807891 4.67981H19.1921C19.6383 4.67981 20 4.31809 20 3.87192C20 3.42574 19.6383 3.06403 19.1921 3.06403Z"/>
	<path d="M19.1921 15.3202H0.807891C0.361719 15.3202 0 15.6819 0 16.1281C0 16.5743 0.361719 16.936 0.807891 16.936H19.1921C19.6383 16.936 20 16.5743 20 16.1281C20 15.6819 19.6383 15.3202 19.1921 15.3202Z"/>
</svg>
