<svg width="20" height="20" viewBox="0 0 20 20" xmlns="http://www.w3.org/2000/svg">
	<path d="M14.5862 0H5.41382C2.42859 0 0 2.42859 0 5.41382V14.5863C0 17.5714 2.42859 20 5.41382 20H14.5863C17.5714 20 20 17.5714 20 14.5863V5.41382C20 2.42859 17.5714 0 14.5862 0V0ZM10 15.4686C6.98456 15.4686 4.5314 13.0154 4.5314 10C4.5314 6.98456 6.98456 4.5314 10 4.5314C13.0154 4.5314 15.4686 6.98456 15.4686 10C15.4686 13.0154 13.0154 15.4686 10 15.4686ZM15.5994 5.82108C14.7083 5.82108 13.9835 5.09628 13.9835 4.20517C13.9835 3.31406 14.7083 2.58911 15.5994 2.58911C16.4905 2.58911 17.2154 3.31406 17.2154 4.20517C17.2154 5.09628 16.4905 5.82108 15.5994 5.82108Z"/>
	<path d="M9.99924 5.70392C7.63046 5.70392 5.70312 7.6311 5.70312 10C5.70312 12.3688 7.63046 14.2961 9.99924 14.2961C12.3682 14.2961 14.2953 12.3688 14.2953 10C14.2953 7.6311 12.3682 5.70392 9.99924 5.70392Z"/>
	<path d="M15.5997 3.76173C15.3552 3.76173 15.1562 3.96071 15.1562 4.20515C15.1562 4.4496 15.3552 4.64857 15.5997 4.64857C15.8443 4.64857 16.0432 4.44975 16.0432 4.20515C16.0432 3.96056 15.8443 3.76173 15.5997 3.76173Z"/>
</svg>
