<svg width="30" height="30" viewBox="0 0 30 30" xmlns="http://www.w3.org/2000/svg">
<path d="M17.7461 12H18.7461C19.0226 12 19.2461 11.7765 19.2461 11.5C19.2461 11.2235 19.0226 11 18.7461 11H17.7461C17.4696 11 17.2461 11.2235 17.2461 11.5C17.2461 11.7765 17.4696 12 17.7461 12Z"/>
<path d="M15.9976 15.5001C15.7811 15.4996 15.5706 15.4611 15.3716 15.3851C15.1156 15.2876 14.8251 15.4161 14.7261 15.6741C14.6281 15.9321 14.7576 16.2211 15.0151 16.3196C15.3281 16.4386 15.6576 16.4996 15.9966 16.5001H16.1751C16.4516 16.5001 16.6751 16.2766 16.6751 16.0001C16.6751 15.7236 16.4516 15.5001 16.1751 15.5001H15.9976Z"/>
<path d="M14.8094 12.3378C14.8999 12.3378 14.9909 12.3133 15.0734 12.2623C15.2949 12.1243 15.5399 12.0398 15.8004 12.0108C16.0749 11.9803 16.2729 11.7333 16.2429 11.4588C16.2129 11.1843 15.9674 10.9883 15.6909 11.0163C15.2799 11.0618 14.8939 11.1948 14.5439 11.4133C14.3094 11.5593 14.2384 11.8678 14.3844 12.1023C14.4794 12.2543 14.6424 12.3378 14.8094 12.3378Z"/>
<path d="M17.9961 20C17.9531 20 17.9106 20.001 17.8681 20.003C17.5921 20.014 17.3781 20.247 17.3891 20.523C17.3996 20.792 17.6216 21.0025 17.8881 21.0025C17.8951 21.0025 17.9021 21.0025 17.9091 21.002L18.8886 21C19.1651 21 19.3886 20.7765 19.3886 20.5C19.3886 20.2235 19.1651 20 18.8886 20H17.9961Z"/>
<path d="M21.7461 12C22.0226 12 22.2461 11.7765 22.2461 11.5C22.2461 11.2235 22.0226 11 21.7461 11H20.7461C20.4696 11 20.2461 11.2235 20.2461 11.5C20.2461 11.7765 20.4696 12 20.7461 12H21.7461Z"/>
<path d="M23.8887 20C23.6122 20 23.3887 20.2235 23.3887 20.5C23.3887 20.7765 23.6122 21 23.8887 21H24.8887C25.1652 21 25.3887 20.7765 25.3887 20.5C25.3887 20.2235 25.1652 20 24.8887 20H23.8887Z"/>
<path d="M25.6758 16C25.6758 15.7235 25.4523 15.5 25.1758 15.5H24.1758C23.8993 15.5 23.6758 15.7235 23.6758 16C23.6758 16.2765 23.8993 16.5 24.1758 16.5H25.1758C25.4518 16.5 25.6758 16.2765 25.6758 16Z"/>
<path d="M20.8887 21H21.8887C22.1652 21 22.3887 20.7765 22.3887 20.5C22.3887 20.2235 22.1652 20 21.8887 20H20.8887C20.6122 20 20.3887 20.2235 20.3887 20.5C20.3887 20.7765 20.6127 21 20.8887 21Z"/>
<path d="M22.6758 16C22.6758 15.7235 22.4523 15.5 22.1758 15.5H21.1758C20.8993 15.5 20.6758 15.7235 20.6758 16C20.6758 16.2765 20.8993 16.5 21.1758 16.5H22.1758C22.4518 16.5 22.6758 16.2765 22.6758 16Z"/>
<path d="M18.1758 15.5C17.8993 15.5 17.6758 15.7235 17.6758 16C17.6758 16.2765 17.8993 16.5 18.1758 16.5H19.1758C19.4523 16.5 19.6758 16.2765 19.6758 16C19.6758 15.7235 19.4523 15.5 19.1758 15.5H18.1758Z"/>
<path d="M12.0332 29H11.0332C10.7567 29 10.5332 29.2235 10.5332 29.5C10.5332 29.7765 10.7567 30 11.0332 30H12.0332C12.3097 30 12.5332 29.7765 12.5332 29.5C12.5332 29.2235 12.3092 29 12.0332 29Z"/>
<path d="M9.0332 29H8.0332C7.7567 29 7.5332 29.2235 7.5332 29.5C7.5332 29.7765 7.7567 30 8.0332 30H9.0332C9.3097 30 9.5332 29.7765 9.5332 29.5C9.5332 29.2235 9.3092 29 9.0332 29Z"/>
<path d="M26.3017 27.2584C26.0322 27.1979 25.7647 27.3669 25.7042 27.6364C25.6467 27.8914 25.5351 28.1259 25.3726 28.3324C25.2021 28.5494 25.2392 28.8639 25.4567 29.0344C25.5487 29.1064 25.6571 29.1414 25.7651 29.1414C25.9136 29.1414 26.0602 29.0759 26.1587 28.9504C26.4107 28.6304 26.5907 28.2524 26.6797 27.8564C26.7402 27.5864 26.5712 27.3189 26.3017 27.2584Z"/>
<path d="M25.766 26.3595C25.874 26.3595 25.9835 26.3245 26.0745 26.2525C26.292 26.0815 26.329 25.767 26.1585 25.5505C25.907 25.231 25.5825 24.967 25.219 24.7865C24.9705 24.663 24.6715 24.7645 24.5485 25.0115C24.4255 25.259 24.5265 25.559 24.7735 25.682C25.005 25.7965 25.212 25.965 25.372 26.169C25.471 26.294 25.6175 26.3595 25.766 26.3595Z"/>
<path d="M23.5332 25C23.5332 24.7235 23.3097 24.5 23.0332 24.5H22.0332C21.7567 24.5 21.5332 24.7235 21.5332 25C21.5332 25.2765 21.7567 25.5 22.0332 25.5H23.0332C23.3092 25.5 23.5332 25.2765 23.5332 25Z"/>
<path d="M23.9963 29H23.0312C22.7548 29 22.5312 29.2235 22.5312 29.5C22.5312 29.7765 22.7548 30 23.0312 30L24.0168 29.9995L24.0312 29.4995V29.9995C24.3077 29.9995 24.5138 29.776 24.5138 29.4995C24.5138 29.2235 24.2728 29 23.9963 29Z"/>
<path d="M29.714 17.8162C29.67 17.5432 29.4125 17.3567 29.141 17.4017C28.868 17.4452 28.6825 17.7022 28.7265 17.9747C28.7405 18.0637 28.7485 18.1542 28.7475 18.2507C28.7475 18.4187 28.7235 18.5847 28.6765 18.7447C28.599 19.0097 28.7505 19.2877 29.016 19.3652C29.063 19.3787 29.11 19.3852 29.1565 19.3852C29.373 19.3852 29.5725 19.2442 29.6365 19.0257C29.71 18.7742 29.7475 18.5137 29.7475 18.2542C29.7485 18.1102 29.7375 17.9627 29.714 17.8162Z"/>
<path d="M14.0141 14.9277C14.2761 14.8412 14.4191 14.5587 14.3331 14.2962C14.2756 14.1207 14.2461 13.9372 14.2461 13.7522C14.2466 13.6767 14.2511 13.6012 14.2601 13.5277C14.2946 13.2537 14.1006 13.0032 13.8266 12.9692C13.5441 12.9377 13.3021 13.1297 13.2681 13.4027C13.2541 13.5157 13.2466 13.6307 13.2461 13.7497C13.2461 14.0437 13.2921 14.3327 13.3826 14.6087C13.4521 14.8192 13.6476 14.9527 13.8576 14.9527C13.9096 14.9527 13.9626 14.9452 14.0141 14.9277Z"/>
<path d="M28.3733 15.8692C28.0163 15.6622 27.6263 15.5407 27.2148 15.5082C26.9403 15.4882 26.6988 15.6917 26.6773 15.9677C26.6558 16.2432 26.8613 16.4837 27.1368 16.5052C27.3978 16.5257 27.6453 16.6027 27.8718 16.7342C27.9508 16.7802 28.0373 16.8017 28.1223 16.8017C28.2948 16.8017 28.4628 16.7122 28.5553 16.5527C28.6938 16.3142 28.6123 16.0082 28.3733 15.8692Z"/>
<path d="M27.6722 19.8643C27.4577 19.9543 27.2307 19.9998 26.9962 19.9998H26.8887C26.6122 19.9998 26.3887 20.2233 26.3887 20.4998C26.3887 20.7763 26.6122 20.9998 26.8887 20.9998H26.9962C27.3642 20.9998 27.7217 20.9278 28.0587 20.7863C28.3137 20.6793 28.4332 20.3863 28.3262 20.1318C28.2197 19.8773 27.9247 19.7573 27.6722 19.8643Z"/>
<path d="M16.2787 22.4195C16.3282 22.1625 16.4322 21.925 16.5882 21.713C16.7517 21.491 16.7042 21.178 16.4817 21.014C16.2592 20.851 15.9467 20.898 15.7827 21.1205C15.5382 21.4535 15.3742 21.827 15.2962 22.2315C15.2442 22.5025 15.4217 22.7645 15.6932 22.817C15.7247 22.823 15.7567 22.826 15.7877 22.826C16.0227 22.825 16.2322 22.6585 16.2787 22.4195Z"/>
<path d="M17.0619 25.2972C17.2519 25.2972 17.4329 25.1887 17.5169 25.0052C17.6314 24.7537 17.5214 24.4572 17.2704 24.3427C17.0359 24.2352 16.8234 24.0737 16.6564 23.8747C16.4784 23.6632 16.1634 23.6357 15.9519 23.8137C15.7404 23.9912 15.7129 24.3067 15.8909 24.5182C16.1529 24.8297 16.4859 25.0837 16.8544 25.2517C16.9219 25.2822 16.9924 25.2972 17.0619 25.2972Z"/>
<path d="M15.0332 29H14.0332C13.7567 29 13.5332 29.2235 13.5332 29.5C13.5332 29.7765 13.7567 30 14.0332 30H15.0332C15.3097 30 15.5332 29.7765 15.5332 29.5C15.5332 29.2235 15.3092 29 15.0332 29Z"/>
<path d="M18.0332 29H17.0332C16.7567 29 16.5332 29.2235 16.5332 29.5C16.5332 29.7765 16.7567 30 17.0332 30H18.0332C18.3097 30 18.5332 29.7765 18.5332 29.5C18.5332 29.2235 18.3092 29 18.0332 29Z"/>
<path d="M20.5332 25C20.5332 24.7235 20.3097 24.5 20.0332 24.5H19.0332C18.7567 24.5 18.5332 24.7235 18.5332 25C18.5332 25.2765 18.7567 25.5 19.0332 25.5H20.0332C20.3092 25.5 20.5332 25.2765 20.5332 25Z"/>
<path d="M21.0332 29H20.0332C19.7567 29 19.5332 29.2235 19.5332 29.5C19.5332 29.7765 19.7567 30 20.0332 30H21.0332C21.3097 30 21.5332 29.7765 21.5332 29.5C21.5332 29.2235 21.3092 29 21.0332 29Z"/>
<path d="M10.5109 14.4885C9.37541 13.206 7.86141 12.5 6.24691 12.5C4.63241 12.5 3.11841 13.206 1.98341 14.4885C-0.322594 17.094 -0.322594 21.3325 1.98341 23.938L6.24691 28.7545L10.5104 23.938C12.8169 21.3325 12.8169 17.094 10.5109 14.4885ZM6.24691 21.5C4.59241 21.5 3.24691 20.1545 3.24691 18.5C3.24691 16.8455 4.59241 15.5 6.24691 15.5C7.90141 15.5 9.24691 16.8455 9.24691 18.5C9.24691 20.1545 7.90141 21.5 6.24691 21.5Z"/>
<path d="M24.3743 12.2535L27.6063 8.6105C29.3453 6.6505 29.3453 3.4625 27.6063 1.5025C26.7463 0.5335 25.5983 0 24.3738 0C23.1498 0 22.0018 0.5335 21.1418 1.5025C19.4033 3.4625 19.4033 6.6505 21.1418 8.6105L24.3743 12.2535ZM24.4973 2C26.0133 2 27.2473 3.234 27.2473 4.75C27.2473 6.266 26.0133 7.5 24.4973 7.5C22.9813 7.5 21.7473 6.266 21.7473 4.75C21.7473 3.234 22.9813 2 24.4973 2Z"/>
</svg>
