<svg width="16" height="16" viewBox="0 0 16 16" fill="none" xmlns="http://www.w3.org/2000/svg">
<g clip-path="url(#clip0)">
<path d="M14.7512 7.83593L14.3698 4.54295C15.8609 3.46239 16.479 1.64903 15.586 0.75596C15.2046 0.374612 14.6087 0.250222 13.9511 0.414651C13.3686 0.560281 12.7711 0.917093 12.2689 1.41929C12.2628 1.42552 12.257 1.43186 12.2509 1.43797L7.84242 0.927225L0 8.76977L6.9087 15.6785L14.7512 7.83593ZM14.1786 1.32481C14.5088 1.24229 14.7799 1.27671 14.9225 1.41929C15.2697 1.76646 14.9517 2.72911 14.2406 3.42869L14.1314 2.4857L13.3639 1.71824C13.6317 1.52867 13.9135 1.39109 14.1786 1.32481ZM8.18507 1.91148L11.5895 2.30589C11.4463 2.5587 11.3384 2.81822 11.2714 3.07542L10.9422 2.7462L10.2788 3.40953L12.2689 5.39977L12.9324 4.73631L12.2689 4.07298C12.1264 3.9304 12.0919 3.65929 12.1745 3.32908C12.2481 3.03465 12.4094 2.71995 12.6323 2.42662L12.7604 2.44151L13.2371 2.9182L13.7671 7.4934L6.9087 14.3517L1.32678 8.76977L8.18507 1.91148Z" fill="#ffba01"/>
<path d="M5.17883 6.94116C4.40295 6.94116 3.77161 7.57251 3.77161 8.34851C3.77161 9.12439 4.40295 9.75574 5.17883 9.75574C5.95484 9.75574 6.58619 9.12439 6.58619 8.34851C6.58619 7.57251 5.95484 6.94116 5.17883 6.94116ZM5.17883 8.81751C4.92017 8.81751 4.70984 8.60706 4.70984 8.34851C4.70984 8.08985 4.92017 7.8794 5.17883 7.8794C5.4375 7.8794 5.64795 8.08985 5.64795 8.34851C5.64795 8.60706 5.43762 8.81751 5.17883 8.81751Z" fill="#ffba01"/>
<path d="M9.86975 9.75574C10.6458 9.75574 11.2771 9.12439 11.2771 8.34851C11.2771 7.57251 10.6458 6.94116 9.86975 6.94116C9.09375 6.94116 8.46252 7.57251 8.46252 8.34851C8.46252 9.12439 9.09375 9.75574 9.86975 9.75574ZM9.86975 7.8794C10.1284 7.8794 10.3389 8.08985 10.3389 8.34851C10.3389 8.60706 10.1284 8.81751 9.86975 8.81751C9.61109 8.81751 9.40064 8.60706 9.40064 8.34851C9.40064 8.08985 9.61109 7.8794 9.86975 7.8794Z" fill="#ffba01"/>
<path d="M7.53076 5.45691L8.45618 5.61108L7.51795 11.2402L6.59253 11.0859L7.53076 5.45691Z" fill="#ffba01"/>
</g>
<defs>
<clipPath id="clip0">
<rect width="16" height="16" fill="white"/>
</clipPath>
</defs>
</svg>
