<svg width="20" height="20" viewBox="0 0 20 20" fill="none" xmlns="http://www.w3.org/2000/svg">
	<g clip-path="url(#clip0)">
		<path d="M9.09123 7.38284L9.07812 7.38545L9.09123 7.38284Z" fill="#F6E45A"/>
		<path d="M9.29826 6.27525L9.28516 6.27786L9.29826 6.27525Z" fill="#F6E45A"/>
		<path d="M9.02751 7.13043C8.8871 7.15869 8.7962 7.29545 8.82446 7.43585C8.85272 7.57626 8.98948 7.66716 9.12989 7.6389L9.14285 7.63628C9.18807 7.62724 9.22811 7.60692 9.26076 7.5788C9.32945 7.51965 9.36512 7.42604 9.3459 7.33086C9.31764 7.19045 9.18088 7.09955 9.04047 7.12781L9.02751 7.13043Z" fill="#F6E45A"/>
		<path d="M9.23433 6.02296C9.09391 6.05136 9.00315 6.18813 9.03155 6.32854C9.05989 6.46889 9.19672 6.55972 9.33714 6.53132L9.35011 6.5287C9.39526 6.51958 9.43523 6.49918 9.46781 6.47113C9.53657 6.41191 9.57224 6.31831 9.55288 6.22311C9.52447 6.08269 9.38771 5.99193 9.24729 6.02034L9.23433 6.02296Z" fill="#F6E45A"/>
		<path d="M12.0891 4.51171L12.102 4.50909C12.1472 4.49998 12.1872 4.47965 12.2198 4.45159C12.2885 4.39245 12.3241 4.29877 12.3048 4.2035C12.2765 4.06316 12.1396 3.97233 11.9992 4.00073L11.9863 4.00335C11.8458 4.03175 11.7552 4.16859 11.7835 4.30894C11.8119 4.44935 11.9487 4.54011 12.0891 4.51171Z" fill="#F6E45A"/>
		<path d="M14.2227 5.41379C14.2055 5.42434 14.188 5.4343 14.1704 5.44382C14.0638 5.26393 14.0082 5.04387 14.0154 4.81673C14.0234 4.56124 13.8398 4.33478 13.5882 4.28998L13.2917 4.23709C13.1508 4.21187 13.0161 4.30583 12.9909 4.44677C12.9657 4.58778 13.0597 4.72248 13.2007 4.74763L13.497 4.80044C13.4884 5.07474 13.5453 5.34418 13.657 5.58062C13.3907 5.58622 13.1246 5.49679 12.9104 5.3159C12.7137 5.14987 12.4301 5.15074 12.236 5.31788L7.87381 9.07446L8.59624 5.26637C9.30646 5.28556 9.94488 4.849 10.1851 4.17829L10.7832 4.29169C10.9239 4.3184 11.0597 4.22595 11.0863 4.08526C11.113 3.94451 11.0206 3.80886 10.8799 3.78215L10.2818 3.66867C10.0297 3.62088 9.78349 3.76227 9.69637 4.00511C9.53242 4.46244 9.0959 4.76092 8.61017 4.74785C8.35338 4.74096 8.1325 4.91823 8.08491 5.16962L7.24277 9.61789L5.03966 11.5151C4.84557 11.6823 4.80263 11.9626 4.93764 12.1817C5.19256 12.5954 5.15323 13.1227 4.83975 13.494C4.67373 13.6906 4.67459 13.9743 4.84174 14.1684L7.04072 16.7219C7.20793 16.916 7.48822 16.9589 7.70732 16.8239C8.121 16.569 8.64831 16.6083 9.0196 16.9218C9.21624 17.0878 9.49986 17.0869 9.69396 16.9198L16.8903 10.7226C17.0844 10.5554 17.1274 10.2751 16.9923 10.056C16.7374 9.64227 16.7768 9.11496 17.0902 8.74368C17.2563 8.54703 17.2555 8.26349 17.0883 8.06932L14.8893 5.51581C14.7221 5.32172 14.4418 5.27878 14.2227 5.41379ZM16.6952 8.40777L16.694 8.40911C16.2355 8.952 16.178 9.7232 16.5519 10.3296L9.35424 16.5255C8.81128 16.067 8.04015 16.0095 7.43374 16.3834L5.23607 13.8286C5.69448 13.2857 5.75201 12.5145 5.37811 11.9081L12.5757 5.71222C13.1187 6.17063 13.8898 6.22816 14.4963 5.85426L16.6952 8.40777Z" fill="#F6E45A"/>
		<path d="M6.62502 11.848C6.49764 11.7824 6.34139 11.8326 6.27587 11.9599C6.21028 12.0873 6.26044 12.2437 6.38784 12.3091L6.39965 12.3153C6.49635 12.3651 6.60988 12.3481 6.68754 12.2812C6.71214 12.26 6.73311 12.2338 6.74887 12.2033C6.81432 12.0759 6.76422 11.9196 6.63691 11.8541L6.62502 11.848Z" fill="#F6E45A"/>
		<path d="M7.48056 11.1127C7.35318 11.0471 7.19685 11.0974 7.13133 11.2247C7.06581 11.352 7.1159 11.5085 7.24329 11.5739L7.2551 11.58C7.35189 11.6298 7.46534 11.6129 7.54307 11.5459C7.5676 11.5248 7.58856 11.4986 7.60433 11.4681C7.66978 11.3407 7.61968 11.1844 7.49237 11.1189L7.48056 11.1127Z" fill="#F6E45A"/>
		<path d="M8.10827 10.8449C8.20503 10.8949 8.31877 10.878 8.39657 10.811C8.42103 10.79 8.44198 10.7639 8.45766 10.7336C8.52338 10.6064 8.47359 10.4498 8.34629 10.3841L8.33448 10.378C8.20725 10.3123 8.05074 10.3622 7.98501 10.4894C7.91928 10.6166 7.96915 10.7731 8.09646 10.8388L8.10827 10.8449Z" fill="#F6E45A"/>
		<path d="M8.96174 10.1098C9.05858 10.1598 9.17232 10.1428 9.25012 10.0758C9.27458 10.0548 9.29545 10.0288 9.31121 9.9984C9.37693 9.87118 9.32706 9.71467 9.19984 9.64894L9.18803 9.64282C9.0608 9.57709 8.90429 9.62696 8.83856 9.75419C8.77283 9.88142 8.8227 10.0379 8.94993 10.1037L8.96174 10.1098Z" fill="#F6E45A"/>
		<path d="M9.81565 9.37503C9.91236 9.42485 10.0259 9.40786 10.1035 9.34099C10.1281 9.31979 10.1491 9.2936 10.1649 9.26307C10.2304 9.13575 10.1802 8.97937 10.0529 8.91385L10.0411 8.90773C9.91371 8.84227 9.75732 8.89244 9.69188 9.01969C9.62628 9.14707 9.67645 9.30346 9.80384 9.36891L9.81565 9.37503Z" fill="#F6E45A"/>
		<path d="M10.6691 8.63993C10.7659 8.68968 10.8794 8.67269 10.9571 8.60582C10.9816 8.58469 11.0026 8.5585 11.0183 8.52797C11.0839 8.40059 11.0338 8.2442 10.9064 8.17874L10.8946 8.17263C10.7673 8.10711 10.6109 8.15727 10.5454 8.28459C10.4798 8.4119 10.53 8.56829 10.6573 8.63381L10.6691 8.63993Z" fill="#F6E45A"/>
		<path d="M11.7481 7.43768C11.6207 7.37208 11.4644 7.42226 11.3989 7.54958C11.3333 7.67696 11.3835 7.83334 11.5109 7.8988L11.5227 7.90492C11.6194 7.95474 11.7329 7.93774 11.8106 7.87087C11.8352 7.84968 11.8562 7.82349 11.8719 7.79296C11.9374 7.66557 11.8873 7.50925 11.76 7.44373L11.7481 7.43768Z" fill="#F6E45A"/>
		<path d="M12.6016 6.70241C12.4743 6.63681 12.3179 6.68706 12.2524 6.81437C12.1869 6.94168 12.237 7.09814 12.3644 7.16359L12.3762 7.16971C12.473 7.21947 12.5864 7.20254 12.6642 7.1356C12.6887 7.11448 12.7097 7.08828 12.7254 7.05775C12.7909 6.93036 12.7408 6.77405 12.6135 6.70853L12.6016 6.70241Z" fill="#F6E45A"/>
		<path d="M9.5703 15.2679C9.44298 15.2024 9.28674 15.2526 9.22115 15.3798C9.15562 15.5073 9.20572 15.6636 9.33318 15.7291L9.34492 15.7351C9.4417 15.785 9.55516 15.768 9.63281 15.7011C9.65742 15.6799 9.67845 15.6538 9.69415 15.6232C9.75967 15.4959 9.7095 15.3395 9.58218 15.274L9.5703 15.2679Z" fill="#F6E45A"/>
		<path d="M10.4258 14.5326C10.2985 14.4671 10.1422 14.5173 10.0766 14.6446C10.0112 14.772 10.0612 14.9283 10.1886 14.9939L10.2004 14.9999C10.2972 15.0497 10.4106 15.0327 10.4883 14.9658C10.5129 14.9447 10.5339 14.9186 10.5496 14.888C10.6151 14.7606 10.565 14.6043 10.4376 14.5387L10.4258 14.5326Z" fill="#F6E45A"/>
		<path d="M11.2798 13.7978C11.1525 13.732 10.9961 13.7819 10.9304 13.9091C10.8646 14.0363 10.9144 14.1928 11.0417 14.2585L11.0535 14.2646C11.1502 14.3147 11.264 14.2978 11.3418 14.2308C11.3662 14.2097 11.3873 14.1837 11.4029 14.1533C11.4686 14.0261 11.4188 13.8695 11.2915 13.8039L11.2798 13.7978Z" fill="#F6E45A"/>
		<path d="M12.1333 13.0628C12.0061 12.997 11.8496 13.0469 11.7839 13.1742C11.7181 13.3013 11.768 13.4578 11.8952 13.5235L11.907 13.5297C12.0038 13.5796 12.1175 13.5628 12.1954 13.4957C12.2198 13.4747 12.2408 13.4488 12.2565 13.4183C12.3222 13.2911 12.2723 13.1346 12.145 13.0689L12.1333 13.0628Z" fill="#F6E45A"/>
		<path d="M12.9844 12.3276C12.857 12.2621 12.7007 12.3124 12.6352 12.4396C12.5697 12.567 12.6198 12.7233 12.7472 12.7889L12.759 12.7949C12.8558 12.8448 12.9692 12.8277 13.0469 12.7609C13.0715 12.7397 13.0925 12.7136 13.1082 12.6829C13.1737 12.5556 13.1236 12.3992 12.9962 12.3337L12.9844 12.3276Z" fill="#F6E45A"/>
		<path d="M13.8399 11.5925C13.7125 11.527 13.5561 11.5773 13.4906 11.7045C13.4252 11.8319 13.4753 11.9882 13.6027 12.0538L13.6144 12.0598C13.7113 12.1096 13.8246 12.0926 13.9024 12.0257C13.9269 12.0046 13.9479 11.9784 13.9636 11.9478C14.0292 11.8205 13.9791 11.6641 13.8517 11.5986L13.8399 11.5925Z" fill="#F6E45A"/>
		<path d="M14.6933 10.8576C14.566 10.792 14.4098 10.8422 14.3442 10.9695C14.2787 11.0969 14.3288 11.2532 14.4562 11.3188L14.468 11.3248C14.5647 11.3747 14.6782 11.3576 14.7559 11.2908C14.7805 11.2696 14.8015 11.2434 14.8172 11.2128C14.8827 11.0855 14.8325 10.9291 14.7052 10.8636L14.6933 10.8576Z" fill="#F6E45A"/>
		<path d="M15.5469 10.1223C15.4196 10.0568 15.2633 10.107 15.1977 10.2343C15.1322 10.3616 15.1823 10.518 15.3097 10.5835L15.3215 10.5896C15.4183 10.6394 15.5317 10.6224 15.6094 10.5555C15.634 10.5344 15.655 10.5082 15.6707 10.4776C15.7362 10.3503 15.686 10.1939 15.5587 10.1284L15.5469 10.1223Z" fill="#F6E45A"/>
		<path d="M10.747 9.67681C10.6085 9.71296 10.5254 9.85468 10.5616 9.99323L11.159 12.2817C11.1952 12.4202 11.3369 12.5032 11.4755 12.467C11.5151 12.4567 11.5501 12.4378 11.5792 12.4128C11.6518 12.3503 11.6868 12.2496 11.661 12.1506L11.0634 9.86224C11.0272 9.72361 10.8856 9.6406 10.747 9.67681Z" fill="#F6E45A"/>
		<path d="M11.8533 9.36529C11.5153 9.65635 11.4771 10.1682 11.7682 10.5063C12.0593 10.8443 12.5712 10.8825 12.9091 10.5914C13.2472 10.3003 13.2853 9.78846 12.9943 9.45048C12.7031 9.11242 12.1913 9.07417 11.8533 9.36529ZM12.5707 10.1984C12.4494 10.3028 12.2657 10.2891 12.1612 10.1679C12.0567 10.0465 12.0704 9.86274 12.1917 9.75831C12.3131 9.65381 12.4967 9.66758 12.6012 9.78893C12.7057 9.9102 12.692 10.0939 12.5707 10.1984Z" fill="#F6E45A"/>
		<path d="M9.28685 11.5764C8.9488 11.8675 8.91069 12.3793 9.20181 12.7174C9.49286 13.0554 10.0047 13.0936 10.3427 12.8025C10.6808 12.5114 10.7189 11.9995 10.4279 11.6616C10.1367 11.3235 9.62491 11.2852 9.28685 11.5764ZM10.0043 12.4095C9.88294 12.514 9.69926 12.5002 9.59482 12.3789C9.49032 12.2576 9.50396 12.0739 9.6253 11.9694C9.74665 11.8649 9.93033 11.8787 10.0348 12C10.1393 12.1213 10.1256 12.305 10.0043 12.4095Z" fill="#F6E45A"/>
	</g>
	<defs>
		<clipPath id="clip0">
			<rect width="13.2597" height="13.2597" fill="white" transform="translate(0.650391 9.30251) rotate(-40.7338)"/>
		</clipPath>
	</defs>
</svg>
