<svg width="30" height="30" viewBox="0 0 30 30" xmlns="http://www.w3.org/2000/svg">
<path d="M4.50025 7.5C4.50019 7.5 4.50006 7.5 4.5 7.5H2.5C2.22394 7.49994 2.00006 7.72369 2 7.99975C2 7.99981 2 7.99994 2 8V10C1.99994 10.2761 2.22369 10.4999 2.49975 10.5C2.49981 10.5 2.49994 10.5 2.5 10.5H4.5C4.77606 10.5001 4.99994 10.2763 5 10.0002C5 10.0002 5 10.0001 5 10V8C5.00006 7.72394 4.77631 7.50006 4.50025 7.5ZM4 9.5H3V8.5H4V9.5Z"/>
<path d="M10.5002 7.5C10.5002 7.5 10.5001 7.5 10.5 7.5H8.5C8.22394 7.49994 8.00006 7.72369 8 7.99975C8 7.99981 8 7.99994 8 8V10C7.99994 10.2761 8.22369 10.4999 8.49975 10.5C8.49981 10.5 8.49994 10.5 8.5 10.5H10.5C10.7761 10.5001 10.9999 10.2763 11 10.0002C11 10.0002 11 10.0001 11 10V8C11.0001 7.72394 10.7763 7.50006 10.5002 7.5ZM10 9.5H9V8.5H10V9.5Z"/>
<path d="M16.5002 7.5C16.5002 7.5 16.5001 7.5 16.5 7.5H14.5C14.2239 7.49994 14.0001 7.72369 14 7.99975C14 7.99981 14 7.99994 14 8V10C13.9999 10.2761 14.2237 10.4999 14.4998 10.5C14.4998 10.5 14.4999 10.5 14.5 10.5H16.5C16.7761 10.5001 16.9999 10.2763 17 10.0002C17 10.0002 17 10.0001 17 10V8C17.0001 7.72394 16.7763 7.50006 16.5002 7.5ZM16 9.5H15V8.5H16V9.5Z"/>
<path d="M4.50025 13.0001C4.50019 13.0001 4.50006 13.0001 4.5 13.0001H2.5C2.22394 13.0001 2.00006 13.2238 2 13.4999C2 13.4999 2 13.5001 2 13.5001V15.5001C1.99994 15.7762 2.22369 16.0001 2.49975 16.0001C2.49981 16.0001 2.49994 16.0001 2.5 16.0001H4.5C4.77606 16.0002 4.99994 15.7764 5 15.5004C5 15.5003 5 15.5002 5 15.5001V13.5001C5.00006 13.2241 4.77631 13.0002 4.50025 13.0001ZM4 15.0001H3V14.0001H4V15.0001Z"/>
<path d="M10.5002 13C10.5002 13 10.5001 13 10.5 13H8.5C8.22394 12.9999 8.00006 13.2237 8 13.4998C8 13.4998 8 13.4999 8 13.5V15.5C7.99994 15.7761 8.22369 15.9999 8.49975 16C8.49981 16 8.49994 16 8.5 16H10.5C10.7761 16.0001 10.9999 15.7763 11 15.5003C11 15.5002 11 15.5001 11 15.5V13.5C11.0001 13.2239 10.7763 13.0001 10.5002 13ZM10 15H9V14H10V15Z"/>
<path d="M16.5002 13C16.5002 13 16.5001 13 16.5 13H14.5C14.2239 12.9999 14.0001 13.2237 14 13.4998C14 13.4998 14 13.4999 14 13.5V15.5C13.9999 15.7761 14.2237 15.9999 14.4998 16C14.4998 16 14.4999 16 14.5 16H16.5C16.7761 16.0001 16.9999 15.7763 17 15.5003C17 15.5002 17 15.5001 17 15.5V13.5C17.0001 13.2239 16.7763 13.0001 16.5002 13ZM16 15H15V14H16V15Z"/>
<path d="M4.50025 18.5001C4.50019 18.5001 4.50006 18.5001 4.5 18.5001H2.5C2.22394 18.5001 2.00006 18.7238 2 18.9999C2 18.9999 2 19.0001 2 19.0001V21.0001C1.99994 21.2762 2.22369 21.5001 2.49975 21.5001C2.49981 21.5001 2.49994 21.5001 2.5 21.5001H4.5C4.77606 21.5002 4.99994 21.2764 5 21.0004C5 21.0003 5 21.0002 5 21.0001V19.0001C5.00006 18.7241 4.77631 18.5002 4.50025 18.5001ZM4 20.5001H3V19.5001H4V20.5001Z"/>
<path d="M10.5002 18.5001C10.5002 18.5001 10.5001 18.5001 10.5 18.5001H8.5C8.22394 18.5001 8.00006 18.7238 8 18.9999C8 18.9999 8 19.0001 8 19.0001V21.0001C7.99994 21.2762 8.22369 21.5001 8.49975 21.5001C8.49981 21.5001 8.49994 21.5001 8.5 21.5001H10.5C10.7761 21.5002 10.9999 21.2764 11 21.0004C11 21.0003 11 21.0002 11 21.0001V19.0001C11.0001 18.7241 10.7763 18.5002 10.5002 18.5001ZM10 20.5001H9V19.5001H10V20.5001Z"/>
<path d="M16.5002 18.5001C16.5002 18.5001 16.5001 18.5001 16.5 18.5001H14.5C14.2239 18.5001 14.0001 18.7238 14 18.9999C14 18.9999 14 19.0001 14 19.0001V21.0001C13.9999 21.2762 14.2237 21.5001 14.4998 21.5001C14.4998 21.5001 14.4999 21.5001 14.5 21.5001H16.5C16.7761 21.5002 16.9999 21.2764 17 21.0004C17 21.0003 17 21.0002 17 21.0001V19.0001C17.0001 18.7241 16.7763 18.5002 16.5002 18.5001ZM16 20.5001H15V19.5001H16V20.5001Z"/>
<path d="M4.50025 24C4.50019 24 4.50006 24 4.5 24H2.5C2.22394 23.9999 2.00006 24.2237 2 24.4997C2 24.4998 2 24.4999 2 24.5V26.5C1.99994 26.7761 2.22369 26.9999 2.49975 27C2.49981 27 2.49994 27 2.5 27H4.5C4.77606 27.0001 4.99994 26.7763 5 26.5002C5 26.5002 5 26.5001 5 26.5V24.5C5.00006 24.2239 4.77631 24.0001 4.50025 24ZM4 26H3V25H4V26Z"/>
<path d="M16.5002 24C16.5002 24 16.5001 24 16.5 24H14.5C14.2239 23.9999 14.0001 24.2237 14 24.4997C14 24.4998 14 24.4999 14 24.5V26.5C13.9999 26.7761 14.2237 26.9999 14.4998 27C14.4998 27 14.4999 27 14.5 27H16.5C16.7761 27.0001 16.9999 26.7763 17 26.5002C17 26.5002 17 26.5001 17 26.5V24.5C17.0001 24.2239 16.7763 24.0001 16.5002 24ZM16 26H15V25H16V26Z"/>
<path d="M29.5002 12.5C29.5002 12.5 29.5001 12.5 29.5 12.5H24.5V9.99706C24.9522 10.2518 25.4569 10.3993 25.9751 10.4282C26.0276 10.4311 26.0801 10.4321 26.1321 10.4321C26.9682 10.4303 27.7686 10.0929 28.3535 9.49556C28.5487 9.30044 28.5488 8.98394 28.3537 8.78875C28.3536 8.78869 28.3536 8.78863 28.3535 8.78856L26.636 7.07106L27.8535 5.8535L27.1465 5.1465L25.9289 6.364L24.2114 4.6465C24.0131 4.459 23.7028 4.459 23.5044 4.6465C22.2594 5.90575 22.2574 7.93175 23.5001 9.19337V12.5H19.0001V6C19.0001 5.72394 18.7764 5.50006 18.5003 5.5C18.5002 5.5 18.5001 5.5 18.5001 5.5H18.0001V4C18.0001 3.72394 17.7764 3.50006 17.5003 3.5C17.5002 3.5 17.5001 3.5 17.5001 3.5H16.0001V0.5C16.0001 0.223938 15.7764 6.25131e-05 15.5003 1.30904e-08C15.5002 1.30904e-08 15.5001 1.30904e-08 15.5001 1.30904e-08H3.5C3.22394 -6.24869e-05 3.00006 0.223687 3 0.49975C3 0.499812 3 0.499938 3 0.5V3.5H1.5C1.22394 3.49994 1.00006 3.72369 1 3.99975C1 3.99981 1 3.99994 1 4V5.5H0.5C0.223938 5.49994 6.25131e-05 5.72369 1.30904e-08 5.99975C1.30904e-08 5.99981 1.30904e-08 5.99994 1.30904e-08 6V29.5C-6.24869e-05 29.7761 0.223687 29.9999 0.49975 30C0.499812 30 0.499938 30 0.5 30H29.5C29.7761 30.0001 29.9999 29.7763 30 29.5002C30 29.5002 30 29.5001 30 29.5V13C30.0001 12.7239 29.7763 12.5001 29.5002 12.5ZM4 1H15V3.5H4V1ZM2 4.5H17V5.5H2V4.5ZM9 29H7V25.4038C7.00044 24.9049 7.40469 24.5006 7.90356 24.5H9V29ZM12 29H10V24.5H11.0964C11.5953 24.5006 11.9996 24.9049 12 25.4038V29ZM18 29H13V25.4038C12.9989 24.3529 12.1473 23.5012 11.0964 23.5H7.90356C6.85269 23.5012 6.00112 24.3529 6 25.4038V29H1V6.5H18V29ZM23.896 5.74512L27.2556 9.105C26.8902 9.34106 26.4592 9.45475 26.0249 9.42969C25.3899 9.38494 24.7943 9.10581 24.3536 8.6465C23.522 7.91581 23.3297 6.69619 23.896 5.74512ZM25.5 29H22.5V26.2934C22.5006 25.8554 22.8556 25.5004 23.2937 25.5H24.7063C25.1444 25.5004 25.4995 25.8554 25.5 26.2934V29ZM29 29H26.5V26.2934C26.4988 25.3034 25.6964 24.5011 24.7063 24.5H23.2937C22.3036 24.5011 21.5012 25.3034 21.5 26.2934V29H19V13.5H29V29Z"/>
<path d="M25.5002 14.4999C25.5002 14.4999 25.5001 14.4999 25.5 14.4999H22.5C22.2239 14.4998 22.0001 14.7236 22 14.9996C22 14.9997 22 14.9998 22 14.9999V17.9999C21.9999 18.2759 22.2237 18.4998 22.4997 18.4999C22.4998 18.4999 22.4999 18.4999 22.5 18.4999H25.5C25.7761 18.4999 25.9999 18.2762 26 18.0001C26 18.0001 26 17.9999 26 17.9999V14.9999C26.0001 14.7238 25.7763 14.4999 25.5002 14.4999ZM25 17.4999H23V15.4999H25V17.4999Z"/>
<path d="M25.5002 19.5C25.5002 19.5 25.5001 19.5 25.5 19.5H22.5C22.2239 19.4999 22.0001 19.7237 22 19.9998C22 19.9998 22 19.9999 22 20V23C21.9999 23.2761 22.2237 23.4999 22.4997 23.5C22.4998 23.5 22.4999 23.5 22.5 23.5H25.5C25.7761 23.5001 25.9999 23.2763 26 23.0003C26 23.0002 26 23.0001 26 23V20C26.0001 19.7239 25.7763 19.5001 25.5002 19.5ZM25 22.5H23V20.5H25V22.5Z"/>
</svg>
