<svg width="26" height="15" viewBox="0 0 26 15" xmlns="http://www.w3.org/2000/svg">
	<path d="M25.8622 13.3969C25.8307 13.329 25.8013 13.2728 25.7741 13.2277C25.323 12.4152 24.4609 11.418 23.1885 10.2357L23.1616 10.2087L23.1481 10.1954L23.1345 10.1818H23.1209C22.5434 9.63125 22.1776 9.26108 22.0245 9.07157C21.7443 8.71055 21.6815 8.34513 21.8347 7.97487C21.9429 7.69513 22.3493 7.10435 23.053 6.20172C23.4232 5.72336 23.7163 5.33997 23.9328 5.05112C25.4942 2.97532 26.1712 1.64886 25.9635 1.07121L25.8828 0.936225C25.8286 0.854957 25.6888 0.780611 25.4634 0.712808C25.2375 0.645148 24.9488 0.633959 24.5968 0.67905L20.6982 0.705981C20.635 0.683601 20.5448 0.685687 20.4274 0.712808C20.31 0.739929 20.2513 0.753538 20.2513 0.753538L20.1835 0.787439L20.1296 0.828167C20.0844 0.855098 20.0348 0.902466 19.9806 0.970173C19.9267 1.03764 19.8816 1.11683 19.8456 1.20705C19.4211 2.29905 18.9385 3.31434 18.3969 4.25285C18.063 4.81248 17.7563 5.29748 17.4762 5.70814C17.1965 6.11865 16.9619 6.42111 16.7725 6.61498C16.5829 6.80905 16.4117 6.96452 16.258 7.08197C16.1045 7.19946 15.9873 7.2491 15.9062 7.23094C15.8249 7.21278 15.7483 7.19477 15.6758 7.17675C15.5496 7.09548 15.448 6.98496 15.3714 6.84509C15.2945 6.70521 15.2427 6.52917 15.2157 6.31708C15.1887 6.10485 15.1728 5.92231 15.1683 5.76883C15.164 5.61554 15.166 5.39871 15.1751 5.11897C15.1845 4.83908 15.1887 4.64971 15.1887 4.55043C15.1887 4.20743 15.1954 3.83518 15.2088 3.43358C15.2225 3.03198 15.2335 2.71379 15.2428 2.47937C15.252 2.24472 15.2563 1.99646 15.2563 1.73473C15.2563 1.473 15.2403 1.26774 15.2088 1.11877C15.1777 0.969983 15.13 0.82556 15.0671 0.685545C15.0038 0.545673 14.9111 0.437474 14.7896 0.360663C14.6677 0.283946 14.5163 0.223066 14.3361 0.177833C13.8577 0.0695863 13.2486 0.0110297 12.5084 0.00192615C10.8299 -0.0160913 9.75136 0.0922976 9.27305 0.326951C9.08353 0.426094 8.91203 0.561557 8.7587 0.732912C8.59621 0.93153 8.57354 1.03992 8.69085 1.05775C9.23241 1.13887 9.61581 1.33294 9.84145 1.63976L9.92276 1.80234C9.98602 1.91964 10.0492 2.12732 10.1124 2.42508C10.1755 2.72284 10.2162 3.05223 10.2341 3.41305C10.2792 4.07197 10.2792 4.63601 10.2341 5.10522C10.1889 5.57462 10.1463 5.94004 10.1055 6.20177C10.0648 6.4635 10.0039 6.67558 9.92276 6.83797C9.84145 7.00042 9.78735 7.0997 9.76023 7.13574C9.73316 7.17177 9.71059 7.19448 9.69266 7.2034C9.57536 7.24835 9.45336 7.27125 9.3271 7.27125C9.20065 7.27125 9.04731 7.208 8.86685 7.08159C8.68644 6.95518 8.4992 6.78155 8.30513 6.56041C8.11106 6.33922 7.8922 6.03013 7.64844 5.63308C7.40488 5.23604 7.15216 4.76678 6.89043 4.22531L6.67389 3.83262C6.53852 3.58 6.35361 3.21216 6.11895 2.72943C5.88416 2.24652 5.67663 1.77939 5.49622 1.32815C5.4241 1.13864 5.31576 0.994355 5.17138 0.895069L5.10363 0.85434C5.05858 0.818305 4.98627 0.780042 4.88708 0.739265C4.78775 0.698537 4.6841 0.669329 4.57571 0.651359L0.866543 0.678291C0.487514 0.678291 0.230339 0.764158 0.0949234 0.935655L0.0407289 1.01678C0.0136553 1.06197 0 1.13413 0 1.23346C0 1.33275 0.0270736 1.4546 0.0812681 1.59889C0.622739 2.87149 1.21158 4.0988 1.84778 5.28103C2.48399 6.46326 3.03684 7.41558 3.506 8.13713C3.97526 8.8592 4.45358 9.54068 4.94095 10.1813C5.42832 10.8221 5.75093 11.2327 5.90877 11.4131C6.0668 11.5939 6.19093 11.729 6.28116 11.8192L6.61965 12.1441C6.83624 12.3607 7.15429 12.6201 7.57396 12.9224C7.99372 13.2249 8.45842 13.5226 8.96832 13.8162C9.4783 14.1092 10.0716 14.3484 10.7485 14.5334C11.4254 14.7185 12.0841 14.7928 12.7249 14.757H14.2817C14.5975 14.7297 14.8367 14.6304 14.9993 14.4591L15.0531 14.3912C15.0894 14.3373 15.1233 14.2537 15.1546 14.1411C15.1862 14.0283 15.202 13.904 15.202 13.7688C15.1927 13.3808 15.2223 13.0311 15.2898 12.7198C15.3572 12.4086 15.4342 12.1739 15.5202 12.0159C15.6061 11.858 15.7031 11.7248 15.8111 11.6168C15.9193 11.5085 15.9964 11.4429 16.0416 11.4204C16.0866 11.3977 16.1225 11.3823 16.1495 11.373C16.3661 11.3008 16.621 11.3707 16.9146 11.583C17.208 11.7951 17.4831 12.057 17.7405 12.3682C17.9977 12.6797 18.3067 13.0292 18.6677 13.4172C19.0288 13.8053 19.3446 14.0938 19.6152 14.2836L19.8859 14.4461C20.0666 14.5545 20.3013 14.6537 20.5901 14.744C20.8785 14.8342 21.1311 14.8567 21.348 14.8116L24.8134 14.7576C25.1561 14.7576 25.4228 14.7008 25.612 14.5882C25.8016 14.4754 25.9142 14.3511 25.9505 14.216C25.9867 14.0806 25.9887 13.9271 25.9574 13.7555C25.9253 13.5843 25.8936 13.4645 25.8622 13.3969Z"/>
</svg>
