<svg width="16" height="16" viewBox="0 0 16 16" xmlns="http://www.w3.org/2000/svg">
<path d="M15.9194 7.45343H15.1518V3.92216C15.1518 3.07556 14.4631 2.38683 13.6165 2.38683H12.5767L11.5128 0.473822C11.3506 0.181464 11.042 0 10.7073 0C10.5513 0 10.3966 0.0402297 10.2599 0.116055L6.17655 2.38679H1.6154C0.768809 2.38679 0.0800781 3.07552 0.0800781 3.92211V14.4646C0.0800781 15.3112 0.768809 16 1.6154 16H13.6165C14.4631 16 15.1518 15.3112 15.1518 14.4646V11.3685H15.9194V7.45343ZM13.6165 3.00093C14.0893 3.00093 14.4756 3.36018 14.5275 3.81986H13.3736L12.9185 3.00093H13.6165ZM10.5587 0.652801C10.7027 0.572055 10.8965 0.628529 10.976 0.771961L12.671 3.81958H4.86354L10.5587 0.652801ZM14.5376 14.4646C14.5376 14.9725 14.1243 15.3858 13.6164 15.3858H1.6154C1.10751 15.3858 0.694178 14.9725 0.694178 14.4646V3.92216C0.694178 3.41427 1.10751 3.00093 1.6154 3.00093H5.07233L3.59965 3.81991H1.80733C1.63752 3.81991 1.50025 3.95746 1.50025 4.12698C1.50025 4.2965 1.63752 4.43406 1.80733 4.43406H2.49515H13.715H14.5376V7.45372H12.2921C11.2493 7.45372 10.4006 8.30246 10.4006 9.34523V9.47729C10.4006 10.5201 11.2493 11.3688 12.2921 11.3688H14.5376V14.4646ZM15.3053 10.7544H15.1518H12.2921C11.5877 10.7544 11.0147 10.1814 11.0147 9.47696V9.3449C11.0147 8.6405 11.5876 8.06749 12.2921 8.06749H15.1518H15.3053V10.7544ZM13.2326 9.43616C13.2326 9.81079 12.9292 10.1141 12.5546 10.1141C12.18 10.1141 11.8766 9.81074 11.8766 9.43616C11.8766 9.06157 12.18 8.75818 12.5546 8.75818C12.9293 8.75813 13.2326 9.06181 13.2326 9.43616Z"/>
</svg>
