<svg width="20" height="20" viewBox="0 0 20 20" xmlns="http://www.w3.org/2000/svg">
	<path d="M18.9002 1.1002C18.167 0.366779 17.2836 0 16.2506 0H3.75011C2.71718 0 1.83376 0.366779 1.1002 1.1002C0.366779 1.83376 0 2.71714 0 3.75011V16.2505C0 17.2834 0.366779 18.1669 1.1002 18.9004C1.83376 19.634 2.71718 20.0007 3.75011 20.0007H16.2505C17.2834 20.0007 18.1669 19.634 18.9001 18.9004C19.6336 18.1669 20.0004 17.2834 20.0004 16.2505V3.75011C20.0004 2.71714 19.6336 1.83362 18.9002 1.1002ZM11.8104 2.89054H12.6829V6.43217C12.6829 6.6406 12.6869 6.75348 12.6956 6.77086C12.7044 6.90978 12.774 6.97915 12.9042 6.97915C13.0777 6.97915 13.2602 6.8447 13.451 6.57561V2.89054H14.3235V7.70842H13.451H13.4507V7.18735C13.0948 7.57789 12.7607 7.77341 12.4483 7.77341C12.1706 7.77341 11.9839 7.65629 11.8883 7.42186C11.8361 7.2657 11.8104 7.0269 11.8104 6.70564V2.89054ZM8.516 4.45315C8.516 3.94973 8.60717 3.57201 8.78946 3.32035C9.02379 2.99051 9.36225 2.8255 9.80497 2.8255C10.2304 2.8255 10.5691 2.99065 10.8206 3.32035C11.003 3.57206 11.0942 3.94973 11.0942 4.45315V6.14598C11.0942 6.66687 11.003 7.0445 10.8206 7.27884C10.5691 7.60886 10.2304 7.77377 9.80497 7.77377C9.36225 7.77377 9.02379 7.60872 8.78946 7.27884C8.60717 7.02708 8.516 6.64945 8.516 6.14598V4.45315ZM6.17202 1.23684L6.86221 3.77615L7.52626 1.23684H8.50291L7.33092 5.09116H7.3311V7.70842H6.36754V5.09116C6.27195 4.61374 6.07233 3.92793 5.76853 3.03388C5.56891 2.43487 5.46902 2.13536 5.46902 2.13536L5.15638 1.23684H6.17202ZM16.9018 16.9538C16.815 17.3268 16.6306 17.6436 16.3482 17.9043C16.0663 18.1647 15.7387 18.3167 15.3653 18.3602C14.1762 18.4903 12.3877 18.5554 10.0006 18.5554C7.61328 18.5554 5.82504 18.4902 4.63581 18.3602C4.2626 18.3167 3.93496 18.1647 3.65274 17.9043C3.37061 17.6436 3.18621 17.3268 3.09938 16.9538C2.92584 16.2245 2.83905 15.0958 2.83905 13.5682C2.83905 12.0661 2.92584 10.938 3.09938 10.1826C3.18626 9.80059 3.37065 9.48151 3.65274 9.22534C3.93496 8.96916 4.26689 8.81938 4.6489 8.77605C5.82933 8.64566 7.61328 8.58067 10.0006 8.58067C12.3966 8.58067 14.1849 8.64584 15.3653 8.77605C15.7387 8.81952 16.0682 8.96911 16.3547 9.22534C16.6413 9.48138 16.8281 9.80041 16.9149 10.1826C17.0795 10.903 17.1621 12.0315 17.1621 13.5682C17.1622 15.0958 17.0753 16.2242 16.9018 16.9538Z"/>
	<path d="M3.90625 11.1589H4.92194V16.6669H5.8855V11.1589H6.92723V10.2474H3.90625V11.1589Z"/>
	<path d="M8.67134 15.5339C8.48038 15.8028 8.298 15.9374 8.12446 15.9374C8.00291 15.9374 7.93779 15.8724 7.92912 15.7422C7.92041 15.7249 7.91603 15.612 7.91603 15.4035V11.8877H7.05664V15.6638C7.05664 15.9938 7.08273 16.2282 7.13486 16.3668C7.21294 16.61 7.39533 16.7314 7.68174 16.7314C8.00291 16.7314 8.3328 16.5361 8.67134 16.1455V16.6665H9.54364V11.888H8.67134V15.5339Z"/>
	<path d="M12.0449 11.8228C11.7324 11.8228 11.4371 11.9964 11.1596 12.3438V10.2474H10.2871V16.6668H11.1596V16.198C11.4458 16.5539 11.7413 16.7318 12.0449 16.7318C12.4009 16.7318 12.6308 16.5495 12.7347 16.1849C12.7956 16.0026 12.8259 15.6858 12.8259 15.2344V13.3334C12.8259 12.8732 12.7953 12.552 12.7347 12.3697C12.6308 12.0051 12.4009 11.8228 12.0449 11.8228ZM11.9667 15.2997C11.9667 15.725 11.8409 15.9373 11.589 15.9377C11.4417 15.9377 11.2982 15.8681 11.1593 15.7292V12.8124C11.2982 12.6738 11.4416 12.6042 11.589 12.6042C11.8409 12.6042 11.9667 12.821 11.9667 13.2551V15.2997Z"/>
	<path d="M15.2076 15.293C15.2076 15.3841 15.2054 15.4556 15.2014 15.5078C15.1971 15.5599 15.1947 15.5903 15.1947 15.5989C15.1427 15.8244 15.0124 15.9373 14.8041 15.9373C14.5089 15.9373 14.3613 15.7159 14.3613 15.2733V14.4271H16.0932V13.4372C16.0932 12.9339 16.0022 12.5607 15.8197 12.3175C15.5856 11.9877 15.2469 11.8226 14.8041 11.8226C14.3613 11.8226 14.0142 11.9877 13.7623 12.3175C13.5887 12.5519 13.502 12.9254 13.502 13.4372V15.1171C13.502 15.6293 13.5931 16.0027 13.7754 16.2371C14.0273 16.5669 14.3788 16.732 14.8303 16.732C15.2904 16.732 15.6375 16.5584 15.8722 16.2111C15.9762 16.0547 16.0416 15.8811 16.0675 15.6902C16.0847 15.5686 16.0934 15.3819 16.0934 15.1302V15.0133V15.013H15.2079V15.2931H15.2076V15.293ZM14.3616 13.2681C14.3616 12.8254 14.5049 12.6041 14.7913 12.6041C15.0779 12.6041 15.221 12.8254 15.221 13.2681V13.711H14.3616V13.2681Z"/>
	<path d="M9.8053 6.97878C10.0831 6.97878 10.2219 6.75754 10.2219 6.31482V4.28345C10.2219 3.83216 10.0831 3.60631 9.8053 3.60631C9.52755 3.60631 9.38867 3.83216 9.38867 4.28345V6.31482C9.38867 6.7574 9.52755 6.97878 9.8053 6.97878Z"/>
</svg>
