<svg xmlns="http://www.w3.org/2000/svg" xmlns:xlink="http://www.w3.org/1999/xlink" width="60" height="41" viewBox="0 0 60 41"><defs><path id="hmj2a" d="M456.67 1161.27a3.73 3.73 0 1 1 0-7.46 3.73 3.73 0 0 1 0 7.46zm0-11.18a7.46 7.46 0 1 0 .01 14.93 7.46 7.46 0 0 0-.01-14.93z"/><path id="hmj2b" d="M431.2 1161.27a3.73 3.73 0 1 1 0-7.46 3.73 3.73 0 0 1 0 7.46zm0-11.18a7.46 7.46 0 1 0 .01 14.93 7.46 7.46 0 0 0-.01-14.93z"/><path id="hmj2c" d="M461.69 1128.75a1.86 1.86 0 0 0-1.67-1.02h-9.82v3.72h8.67l5.08 10.1 3.33-1.68z"/><path id="hmj2d" d="M436.97 1159.47v-3.73h14.1v3.73z"/><path id="hmj2e" d="M425.6 1155.74h-6.46a1.86 1.86 0 1 0 0 3.73h6.46a1.86 1.86 0 1 0 0-3.73z"/><path id="hmj2f" d="M470.75 1144.35l-3.67-4.72c-.35-.46-.9-.72-1.47-.72h-13.54v-13.05c0-1.03-.84-1.86-1.87-1.86h-31.06a1.86 1.86 0 1 0 0 3.73h29.2v13.04c0 1.03.84 1.87 1.86 1.87h14.5l2.71 3.5v9.6h-5.15a1.86 1.86 0 1 0 0 3.73h7.02c1.03 0 1.86-.83 1.86-1.86v-12.12c0-.41-.14-.81-.4-1.14z"/><path id="hmj2g" d="M425.48 1146.3h-8.57a1.86 1.86 0 1 0 0 3.73h8.57a1.86 1.86 0 1 0 0-3.73z"/><path id="hmj2h" d="M429.77 1138.97h-15.9a1.86 1.86 0 1 0 0 3.73h15.9a1.86 1.86 0 1 0 0-3.73z"/><path id="hmj2i" d="M432.81 1131.64h-15.9a1.86 1.86 0 1 0 0 3.73h15.9a1.86 1.86 0 1 0 0-3.73z"/></defs><g><g transform="translate(-412 -1124)"><g><g><g><use xlink:href="#hmj2a"/></g></g></g><g><g><g><use xlink:href="#hmj2b"/></g></g></g><g><g><g><use xlink:href="#hmj2c"/></g></g></g><g><g><g><use xlink:href="#hmj2d"/></g></g></g><g><g><g><use xlink:href="#hmj2e"/></g></g></g><g><g><g><use xlink:href="#hmj2f"/></g></g></g><g><g><g><use xlink:href="#hmj2g"/></g></g></g><g><g><g><use xlink:href="#hmj2h"/></g></g></g><g><g><g><use xlink:href="#hmj2i"/></g></g></g></g></g></svg>