<svg xmlns="http://www.w3.org/2000/svg" xmlns:xlink="http://www.w3.org/1999/xlink" width="32" height="19" viewBox="0 0 32 19"><defs><path id="sz8pa" d="M793.97 158.46a1.2 1.2 0 0 1-1.22-1.18c0-.66.55-1.19 1.22-1.19.68 0 1.22.53 1.22 1.19a1.2 1.2 0 0 1-1.22 1.18zm0-3.9a2.76 2.76 0 0 0-2.8 2.72c0 1.5 1.25 2.72 2.8 2.72 1.55 0 2.8-1.22 2.8-2.72 0-1.5-1.25-2.73-2.8-2.73z"/><path id="sz8pb" d="M808.76 158.46a1.2 1.2 0 0 1-1.22-1.18c0-.66.55-1.19 1.22-1.19.68 0 1.22.53 1.22 1.19a1.2 1.2 0 0 1-1.22 1.18zm0-3.9a2.76 2.76 0 0 0-2.8 2.72c0 1.5 1.25 2.72 2.8 2.72 1.55 0 2.8-1.22 2.8-2.72 0-1.5-1.25-2.73-2.8-2.73z"/><path id="sz8pc" d="M797.13 146.18a.7.7 0 0 1-.72.7h-9.85a.7.7 0 0 1-.72-.7v-.41c0-.38.32-.7.72-.7h9.85c.4 0 .72.32.72.7z"/><path id="sz8pd" d="M811.22 150.1h-4.55c-.18 0-.2-.17-.2-.17v-3.68s-.02-.14.22-.14h1.3c.78 0 1.71.55 2.07 1.23l1.2 2.36c.05.1.1.18.17.26.04.05-.03.15-.21.15zm3.04.15c-1.03-.26-1.62-.43-2.02-1.18l-1.35-2.66a2.9 2.9 0 0 0-2.33-1.38h-1.85s-.25 0-.25-.23v-2.23c0-.86-.5-1.57-1.57-1.57h-15.05c-1.53 0-2.26.7-2.26 1.57v1.4s0 .41.41.41h8.42c.8 0 1.43.62 1.43 1.39v.41c0 .77-.64 1.4-1.43 1.4H788s-.41-.04-.41.4v.47c0 .38.54.38.54.38h5.67c.78 0 1.43.63 1.43 1.4v.4c0 .77-.65 1.4-1.43 1.4h-5.58s-.63-.02-.63.47v3.37c0 .86.73 1.57 1.61 1.57h.9c.2 0 .23-.1.23-.16a3.6 3.6 0 0 1 3.65-3.55 3.6 3.6 0 0 1 3.66 3.55c0 .05-.02.16.14.16h7.2c.14 0 .14-.12.14-.16a3.6 3.6 0 0 1 3.65-3.55 3.6 3.6 0 0 1 3.66 3.55c0 .05 0 .16.08.16h1.82c.88 0 1.6-.7 1.6-1.55v-2.95c0-2.48-.8-2.48-1.66-2.7z"/><path id="sz8pe" d="M794.5 150.64a.7.7 0 0 1-.71.7h-9.08a.7.7 0 0 1-.71-.7v-.42c0-.38.32-.7.71-.7h9.08c.39 0 .71.32.71.7z"/></defs><g><g transform="translate(-784 -141)"><g><use xlink:href="#sz8pa"/></g><g><use xlink:href="#sz8pb"/></g><g><use xlink:href="#sz8pc"/></g><g><use xlink:href="#sz8pd"/></g><g><use xlink:href="#sz8pe"/></g></g></g></svg>