<svg xmlns="http://www.w3.org/2000/svg" xmlns:xlink="http://www.w3.org/1999/xlink" width="47" height="33" viewBox="0 0 47 33"><defs><path id="mtrza" d="M501.35 326.6a2.91 2.91 0 1 1 0-5.83 2.91 2.91 0 0 1 0 5.82zm0-8.74a5.82 5.82 0 1 0 .01 11.65 5.82 5.82 0 0 0 0-11.65z"/><path id="mtrzb" d="M481.47 326.6a2.91 2.91 0 1 1 0-5.83 2.91 2.91 0 0 1 0 5.82zm0-8.74a5.82 5.82 0 1 0 .02 11.65 5.82 5.82 0 0 0-.02-11.65z"/><path id="mtrzc" d="M504.49 301.21c-.25-.5-.75-.8-1.3-.8h-7.66v2.9h6.76l3.96 7.89 2.6-1.31z"/><path id="mtrzd" d="M485.98 325.18v-2.9h11v2.9z"/><path id="mtrze" d="M477.1 322.28h-5.03a1.45 1.45 0 1 0 0 2.9h5.04a1.45 1.45 0 1 0 0-2.9z"/><path id="mtrzf" d="M512.34 313.38l-2.86-3.68c-.27-.36-.7-.56-1.15-.56h-10.57v-10.19c0-.8-.65-1.45-1.45-1.45h-24.24a1.45 1.45 0 1 0 0 2.9h22.78v10.2c0 .8.66 1.45 1.46 1.45h11.31l2.12 2.72v7.5h-4.02a1.45 1.45 0 1 0 0 2.91h5.47c.8 0 1.46-.65 1.46-1.45v-9.45c0-.33-.1-.64-.3-.9z"/><path id="mtrzg" d="M477.01 314.9h-6.69a1.45 1.45 0 1 0 0 2.92h6.7a1.45 1.45 0 1 0 0-2.91z"/><path id="mtrzh" d="M480.36 309.18h-12.41a1.45 1.45 0 1 0 0 2.91h12.4a1.45 1.45 0 1 0 0-2.9z"/><path id="mtrzi" d="M482.73 303.46h-12.4a1.45 1.45 0 1 0 0 2.91h12.4a1.45 1.45 0 1 0 0-2.9z"/></defs><g><g transform="translate(-466 -297)"><g><g><g><use fill="#707070" xlink:href="#mtrza"/></g></g></g><g><g><g><use fill="#707070" xlink:href="#mtrzb"/></g></g></g><g><g><g><use fill="#707070" xlink:href="#mtrzc"/></g></g></g><g><g><g><use fill="#707070" xlink:href="#mtrzd"/></g></g></g><g><g><g><use fill="#707070" xlink:href="#mtrze"/></g></g></g><g><g><g><use fill="#707070" xlink:href="#mtrzf"/></g></g></g><g><g><g><use fill="#707070" xlink:href="#mtrzg"/></g></g></g><g><g><g><use fill="#707070" xlink:href="#mtrzh"/></g></g></g><g><g><g><use fill="#707070" xlink:href="#mtrzi"/></g></g></g></g></g></svg>