<svg width="20" height="20" viewBox="0 0 20 20" fill="none" xmlns="http://www.w3.org/2000/svg">
<path d="M19.2125 17.7598H18.6694C18.8674 18.0875 18.9643 18.4768 18.9263 18.8852H19.2125C19.5232 18.8852 19.7752 18.6332 19.7752 18.3225C19.7752 18.0117 19.5233 17.7598 19.2125 17.7598Z" fill="#272727"/>
<path d="M15.5037 17.7598H13.7178C13.9158 18.0874 14.0127 18.4768 13.9746 18.8852H15.2468C15.2088 18.477 15.3056 18.0875 15.5037 17.7598Z" fill="#272727"/>
<path d="M10.8323 9.37907C10.8323 9.06829 10.5804 8.81638 10.2696 8.81638H9.41491C9.4864 9.06767 9.49554 9.34013 9.42784 9.6113C9.39878 9.72763 9.35659 9.83817 9.30347 9.94177H9.70687V18.3222C9.70687 18.633 9.95878 18.8849 10.2696 18.8849H10.2952C10.2429 18.3228 10.4465 17.7866 10.8323 17.4028V9.37907H10.8323Z" fill="#272727"/>
<path d="M17.6721 15.7123H12.7203C12.4966 15.7123 12.3152 15.8937 12.3152 16.1175C12.3152 16.3413 12.4966 16.5226 12.7203 16.5226H17.6721C17.8959 16.5226 18.0772 16.3413 18.0772 16.1175C18.0772 15.8937 17.8959 15.7123 17.6721 15.7123Z" fill="#272727"/>
<path d="M17.6721 14.4523H12.7203C12.4966 14.4523 12.3152 14.6337 12.3152 14.8575C12.3152 15.0813 12.4966 15.2626 12.7203 15.2626H17.6721C17.8959 15.2626 18.0772 15.0813 18.0772 14.8575C18.0772 14.6337 17.8959 14.4523 17.6721 14.4523Z" fill="#272727"/>
<path d="M17.6721 13.1915H12.7203C12.4966 13.1915 12.3152 13.3729 12.3152 13.5967C12.3152 13.8205 12.4966 14.0018 12.7203 14.0018H17.6721C17.8959 14.0018 18.0772 13.8205 18.0772 13.5967C18.0772 13.3729 17.8959 13.1915 17.6721 13.1915Z" fill="#272727"/>
<path d="M17.6721 11.9309H12.7203C12.4966 11.9309 12.3152 12.1123 12.3152 12.3361C12.3152 12.5599 12.4966 12.7412 12.7203 12.7412H17.6721C17.8959 12.7412 18.0772 12.5599 18.0772 12.3361C18.0772 12.1123 17.8959 11.9309 17.6721 11.9309Z" fill="#272727"/>
<path d="M17.6721 10.6707H12.7203C12.4966 10.6707 12.3152 10.852 12.3152 11.0758C12.3152 11.2996 12.4966 11.481 12.7203 11.481H17.6721C17.8959 11.481 18.0772 11.2996 18.0772 11.0758C18.0772 10.852 17.8959 10.6707 17.6721 10.6707Z" fill="#272727"/>
<path d="M4.51137 3.48368C5.47336 3.48368 6.25321 2.70383 6.25321 1.74184C6.25321 0.779848 5.47336 0 4.51137 0C3.54938 0 2.76953 0.779848 2.76953 1.74184C2.76953 2.70383 3.54938 3.48368 4.51137 3.48368Z" fill="#272727"/>
<path d="M8.11786 8.47114C7.83712 8.40106 5.75004 7.8802 5.4693 7.81008L4.46289 4.98242L5.97637 7.15582L6.12379 5.44101C6.17946 4.79351 5.69969 4.22351 5.05227 4.16788L2.96164 3.98816C2.31418 3.93249 1.74418 4.41226 1.68851 5.05968L1.22523 11.0792C1.22668 11.0915 1.79449 14.7171 1.79449 14.7171L0.285307 18.7185C0.100737 19.2079 0.347808 19.7542 0.837183 19.9388C1.3266 20.1233 1.87289 19.8762 2.05746 19.3869L3.65492 15.1516C3.71277 14.9983 3.72981 14.8324 3.70438 14.6705C3.65563 14.3601 3.22961 11.6467 3.16676 11.2462L3.66629 11.2892L5.17731 14.6327L6.22997 19.2627C6.3459 19.7726 6.85325 20.0921 7.36337 19.9762C7.87333 19.8602 8.19274 19.3528 8.07688 18.8428L7.00305 14.1197C6.98895 14.0578 6.96872 13.9975 6.94255 13.9397L5.64086 11.0593L5.70809 10.2774L4.49309 9.97411C3.81172 9.80403 3.41449 9.20895 3.37125 8.82211L3.01285 5.61547L4.12414 8.73793C4.21035 8.98012 4.41309 9.17329 4.67657 9.23903L7.73563 10.0025C8.12837 10.1006 8.53095 9.88532 8.66817 9.50575C8.82825 9.06309 8.5711 8.58426 8.11786 8.47114Z" fill="#272727"/>
<path d="M12.9057 17.7126C12.6923 17.5477 12.4251 17.4493 12.1352 17.4493C11.4393 17.4493 10.8723 18.0165 10.8723 18.7122C10.8723 19.4138 11.4449 19.9751 12.1352 19.9751C12.8314 19.9751 13.3981 19.4081 13.3981 18.7122C13.3981 18.3058 13.2049 17.9438 12.9057 17.7126ZM12.1352 19.19C11.8718 19.19 11.6576 18.9756 11.6576 18.7123C11.6576 18.4489 11.8719 18.2346 12.1352 18.2346C12.3986 18.2346 12.6129 18.4489 12.6129 18.7123C12.6129 18.9756 12.3986 19.19 12.1352 19.19Z" fill="#272727"/>
<path d="M17.0869 17.4494C16.391 17.4494 15.824 18.0166 15.824 18.7123C15.824 19.4139 16.3966 19.9752 17.0869 19.9752C17.7806 19.9752 18.3498 19.411 18.3498 18.7123C18.3498 18.0151 17.7814 17.4494 17.0869 17.4494ZM17.0869 19.19C16.8235 19.19 16.6092 18.9757 16.6092 18.7123C16.6092 18.4489 16.8235 18.2346 17.0869 18.2346C17.3503 18.2346 17.5646 18.4489 17.5646 18.7123C17.5646 18.9757 17.3503 19.19 17.0869 19.19Z" fill="#272727"/>
</svg>
