<svg xmlns="http://www.w3.org/2000/svg" xmlns:xlink="http://www.w3.org/1999/xlink" width="40" height="43" viewBox="0 0 40 43"><defs><path id="d6a4a" d="M1268.19 1128.04c.88-1.3 1.8-2.29 2.72-2.96a4.43 4.43 0 0 1 3.07-.97c.8.07 1.44.3 1.83.67.3.27.46.64.49 1.1a4 4 0 0 1-1.1 2.7c-.86 1-2.1 1.73-3.52 2.08h-5.02c.4-.78.9-1.7 1.53-2.62zm-18.81 32.37v-17.67h9.7v11.03l5.22-2.42 5.21 2.42v-11.03h9.7v17.67zm4.01-31.84a4 4 0 0 1-1.1-2.7c.03-.45.2-.82.5-1.1a3.1 3.1 0 0 1 1.83-.66c1.02-.1 2.02.22 3.05.96.92.66 1.83 1.65 2.7 2.93.64.92 1.16 1.86 1.56 2.66h-5.02a6.83 6.83 0 0 1-3.52-2.09zm8.78 14.17h4.25v6.2l-2.12-1-2.13 1zm-14.3-8.07v-.92h32.86v5.9h-32.86zm11.63-12.09a7.47 7.47 0 0 0-5.17-1.55 6.02 6.02 0 0 0-3.65 1.49 4.64 4.64 0 0 0-1.47 3.15 7.03 7.03 0 0 0 1.84 4.92l.07.07h-6.34v12.08h1.5v20.76h36.03v-20.76h1.5v-12.08h-6.33l.06-.07a7.03 7.03 0 0 0 1.84-4.92 4.64 4.64 0 0 0-1.47-3.15 6.02 6.02 0 0 0-3.65-1.49 7.47 7.47 0 0 0-5.17 1.55 14.91 14.91 0 0 0-3.46 3.72c-.51.76-.96 1.52-1.33 2.22-.38-.7-.82-1.46-1.34-2.22a14.9 14.9 0 0 0-3.46-3.72z"/></defs><g><g transform="translate(-1244 -1121)"><g><g><use fill="#707070" xlink:href="#d6a4a"/></g></g></g></g></svg>