<svg xmlns="http://www.w3.org/2000/svg" xmlns:xlink="http://www.w3.org/1999/xlink" width="26" height="16" viewBox="0 0 26 16"><defs><path id="x4q5a" d="M453.18 336.14h-9l-.8 1.94-.13.34h1.73v-.89c0-.17.13-.3.3-.3.16 0 .29.13.29.3V338.42h2.82v-.89c0-.17.13-.3.3-.3.16 0 .29.13.29.3V338.42h2.82v-.89c0-.17.13-.3.3-.3.16 0 .29.13.29.3V338.42h1.73l-.14-.34z"/><path id="x4q5b" d="M452.28 334.07l1-1.56h3.4v1.56zm-11.6 0v-1.56h3.4l1 1.56zm2.45-8.26s1.35-.34 5.55-.34c4.21 0 5.56.34 5.56.34l1.97 4.78h-15.05zm17.73 2.76a.5.5 0 0 0-.44-.3h-2.26a.5.5 0 0 0-.44.3c-.08.24-.13.43-.15.62l-2.1-4.03a.9.9 0 0 0-.68-.58 34.48 34.48 0 0 0-12.21 0 .9.9 0 0 0-.69.58l-2.1 4.03c-.01-.19-.07-.39-.14-.62a.5.5 0 0 0-.44-.3h-2.26a.5.5 0 0 0-.44.3 2.24 2.24 0 0 0 0 1.71c.06.17.27.3.44.3h2.25v.09c-.47.14-.81.58-.81 1.1v7.65c0 .31.25.56.55.56h2.8c.3 0 .55-.25.55-.56v-1.34h.46l.96-2.35a.3.3 0 0 1 .28-.18h9.4a.3.3 0 0 1 .27.18l.96 2.35h.46v1.34c0 .3.25.55.55.55h2.8c.3 0 .55-.25.55-.55v-7.64c0-.52-.35-.97-.82-1.11v-.08h2.26a.5.5 0 0 0 .44-.3 2.2 2.2 0 0 0 0-1.72z"/></defs><g><g transform="translate(-436 -324)"><g><g><use xlink:href="#x4q5a"/></g><g><use xlink:href="#x4q5b"/></g></g></g></g></svg>