<svg xmlns="http://www.w3.org/2000/svg" xmlns:xlink="http://www.w3.org/1999/xlink" width="26" height="18" viewBox="0 0 26 18"><defs><path id="74x3a" d="M738.93 323l3.12 6.87c.06.11.17.2.3.2l9.17.75c.27.02.47-.27.36-.52l-2.4-5.24a.36.36 0 0 0-.26-.2zm-10.36 2.06l-2.45 5.23c-.11.26.09.54.37.51l9.19-.93c.13 0 .24-.09.3-.21l2.95-6.66-10.1 1.86a.37.37 0 0 0-.26.2zm9.7 3.35l-1.18 2.85a.36.36 0 0 1-.3.22l-7.8.69a.36.36 0 0 0-.33.37l.16 6.12c0 .17.12.3.29.34l9.17 1.93c.45.1.91.1 1.36 0l9.28-2a.36.36 0 0 0 .28-.35v-6.03a.37.37 0 0 0-.32-.36l-1.04-.16a.37.37 0 0 0-.4.36v5.19l-8.48 1.6v-10.63c0-.4-.55-.51-.7-.14z"/></defs><g><g transform="translate(-726 -323)"><g><use xlink:href="#74x3a"/></g></g></g></svg>