<svg xmlns="http://www.w3.org/2000/svg" xmlns:xlink="http://www.w3.org/1999/xlink" width="26" height="18" viewBox="0 0 26 18"><defs><path id="4rbza" d="M1313.92 323.3h-2.37c-.3 0-.55.25-.55.56v16.28c0 .3.25.55.55.55h2.37c.3 0 .55-.24.55-.55v-16.28c0-.3-.25-.55-.55-.55z"/><path id="4rbzb" d="M1336.45 323.3h-2.37c-.3 0-.55.25-.55.56v16.28c0 .3.25.55.55.55h2.37c.3 0 .55-.24.55-.55v-16.28c0-.3-.25-.55-.55-.55z"/><path id="4rbzc" d="M1318.37 323.86c0-.3-.25-.55-.55-.55h-1.5c-.3 0-.55.24-.55.55v11.6c0 .31.24.56.55.56h1.5c.3 0 .55-.25.55-.55z"/><path id="4rbzd" d="M1319.78 336.02h1.5c.3 0 .55-.25.55-.55v-11.61c0-.3-.25-.55-.55-.55h-1.5c-.3 0-.55.24-.55.55v11.6c0 .31.25.56.55.56z"/><path id="4rbze" d="M1323.25 336.02h1.5c.3 0 .54-.25.54-.55v-11.61c0-.3-.24-.55-.55-.55h-1.5c-.3 0-.55.24-.55.55v11.6c.01.31.26.56.56.56z"/><path id="4rbzf" d="M1328.77 335.47v-11.61c0-.3-.25-.55-.55-.55h-1.5c-.3 0-.55.24-.55.55v11.6c0 .31.24.56.55.56h1.5c.3 0 .55-.25.55-.55z"/><path id="4rbzg" d="M1332.23 335.47v-11.61c0-.3-.24-.55-.55-.55h-1.5c-.3 0-.55.24-.55.55v11.6c0 .31.25.56.55.56h1.5c.3 0 .55-.25.55-.55z"/><path id="4rbzh" d="M1316.69 340.14c-.3 0-.5-.24-.49-.48 0-.26.16-.44.42-.52.32.09.54.27.54.57 0 .24-.19.43-.47.43zm-.02-2.47c.3 0 .42.21.42.42 0 .22-.17.39-.35.44-.28-.08-.49-.23-.49-.46 0-.22.14-.4.42-.4zm.68 1.1c.34-.17.5-.46.5-.76 0-.42-.33-.9-1.14-.9-.7 0-1.22.4-1.22.98 0 .3.17.59.5.76v.01c-.37.17-.61.45-.61.87 0 .47.4.96 1.27.96.8 0 1.33-.41 1.33-1.05 0-.44-.3-.73-.63-.86z"/><path id="4rbzi" d="M1319.63 340.08c-.32 0-.5-.38-.5-1.17 0-.8.2-1.18.5-1.18.32 0 .48.4.48 1.17 0 .79-.17 1.18-.48 1.18zm0-2.96c-.89 0-1.31.8-1.31 1.8 0 .97.4 1.77 1.29 1.77.88 0 1.3-.74 1.3-1.8 0-.94-.35-1.77-1.28-1.77z"/><path id="4rbzj" d="M1323 338.64a.5.5 0 0 1-.45.23c-.33 0-.49-.26-.49-.55 0-.36.2-.6.47-.6.37 0 .5.36.5.72 0 .1 0 .16-.04.2zm-.44-1.52c-.76 0-1.3.57-1.3 1.25 0 .66.49 1.08 1.08 1.08.31 0 .53-.1.69-.25h.01c-.06.26-.21.48-.43.64-.19.13-.43.2-.68.21h-.05a.32.32 0 0 0-.3.33v.04c0 .08.03.14.09.2.05.05.12.08.2.07h.08c.54-.02.99-.19 1.32-.48.37-.35.6-.88.6-1.6-.01-.8-.43-1.49-1.31-1.49z"/><path id="4rbzk" d="M1325.68 337.18h-.2a.36.36 0 0 0-.16.04l-.61.29a.3.3 0 0 0-.17.34c.02.09.08.16.16.2.09.04.18.04.26 0l.32-.15v2.34c0 .22.19.4.4.4a.4.4 0 0 0 .39-.4v-2.67c0-.22-.18-.39-.39-.39z"/><path id="4rbzl" d="M1328.46 340.08c-.31 0-.5-.38-.5-1.17 0-.8.2-1.18.5-1.18.32 0 .48.4.48 1.17 0 .79-.16 1.18-.48 1.18zm0-2.96c-.89 0-1.3.8-1.3 1.8 0 .97.4 1.77 1.28 1.77s1.31-.74 1.31-1.8c0-.94-.36-1.77-1.28-1.77z"/><path id="4rbzm" d="M1332.24 337.18h-1.72a.33.33 0 0 0-.34.34c0 .18.15.33.34.33h1.25v.02l-1.14 2.21a.38.38 0 0 0 .34.55c.14 0 .27-.08.34-.21l1.28-2.65c.02-.05.03-.1.03-.16v-.05c0-.21-.17-.38-.38-.38z"/></defs><g><g transform="translate(-1311 -323)"><g><use xlink:href="#4rbza"/></g><g><use xlink:href="#4rbzb"/></g><g><use xlink:href="#4rbzc"/></g><g><use xlink:href="#4rbzd"/></g><g><use xlink:href="#4rbze"/></g><g><use xlink:href="#4rbzf"/></g><g><use xlink:href="#4rbzg"/></g><g><use xlink:href="#4rbzh"/></g><g><use xlink:href="#4rbzi"/></g><g><use xlink:href="#4rbzj"/></g><g><use xlink:href="#4rbzk"/></g><g><use xlink:href="#4rbzl"/></g><g><use xlink:href="#4rbzm"/></g></g></g></svg>