<svg xmlns="http://www.w3.org/2000/svg" xmlns:xlink="http://www.w3.org/1999/xlink" width="57" height="46" viewBox="0 0 57 46"><defs><path id="cpgoa" d="M503.2 627.92v-2.03c.18.26.27.59.27 1.05 0 .42-.09.75-.27.98zm-2.45-6.46c-.37-.26-.48-.54-.48-.97 0-.2 0-.6.48-.85zm2.5 1v-2.89c.22.08.4.17.56.25.25.12.5.25.82.25.89 0 1.38-.9 1.38-1.52 0-1.16-1.49-1.69-2.76-1.88v-.09c0-.65-.58-1.2-1.26-1.2-.7 0-1.27.54-1.27 1.2v.16c-2.08.4-3.3 1.8-3.3 3.86 0 2.6 1.78 3.47 3.3 4.02v3.7c-.6-.18-.9-.5-1.17-.78-.25-.26-.56-.59-1.06-.59-.8 0-1.4.8-1.4 1.53 0 1.16 1.5 2.45 3.63 2.74v.2c0 .67.57 1.2 1.26 1.2.7 0 1.27-.55 1.27-1.2v-.34c1.95-.53 3.08-2.08 3.08-4.25 0-2.81-1.81-3.87-3.08-4.38z"/><path id="cpgob" d="M515.71 596h-51.15a2.56 2.56 0 0 0-2.56 2.56v40.88a2.56 2.56 0 0 0 2.56 2.56h51.15a2.56 2.56 0 0 0 2.56-2.56v-40.88a2.56 2.56 0 0 0-2.56-2.56z"/><path id="cpgoc" d="M475.17 611.3h30.31c1.41 0 1.88-1.14 1.88-2.55s-.47-2.56-1.88-2.56h-30.31c-1.42 0-1.88 1.15-1.88 2.56 0 1.41.46 2.56 1.88 2.56z"/><path id="cpgod" d="M475.17 621.54h16.67c1.41 0 1.88-1.15 1.88-2.56 0-1.41-.47-2.56-1.88-2.56h-16.67c-1.42 0-1.88 1.15-1.88 2.56 0 1.41.46 2.56 1.88 2.56z"/><path id="cpgoe" d="M475.17 631.77h16.67c1.41 0 1.88-1.15 1.88-2.56 0-1.41-.47-2.56-1.88-2.56h-16.67c-1.42 0-1.88 1.15-1.88 2.56 0 1.41.46 2.56 1.88 2.56z"/><path id="cpgof" d="M501.62 620.14h2.6c.56 0 1.02.16 1.37.5.36.34.53.78.53 1.32 0 .55-.17.99-.53 1.33-.35.33-.8.5-1.38.5h-2.59zm-3.68 7.92h1.81v1.57c0 .07.03.13.08.18.04.05.1.08.18.08h1.35c.07 0 .13-.03.19-.08a.25.25 0 0 0 .07-.18v-1.57h4.09a.25.25 0 0 0 .26-.26v-1.05a.25.25 0 0 0-.26-.26h-4.09v-.96h2.75c1.08 0 1.96-.33 2.64-1a3.43 3.43 0 0 0 1.03-2.57c0-1.05-.34-1.9-1.03-2.57-.68-.66-1.56-1-2.64-1h-4.36a.25.25 0 0 0-.18.08.26.26 0 0 0-.08.19v5.13h-1.8a.24.24 0 0 0-.2.08.26.26 0 0 0-.07.18v1.22c0 .07.03.14.07.19.05.04.12.07.2.07h1.8v.96h-1.8a.25.25 0 0 0-.27.26v1.05c0 .07.03.14.07.18.05.05.12.08.2.08z"/></defs><g><g transform="translate(-462 -596)"><g><use xlink:href="#cpgoa"/></g><g><use fill="#bdbdbd" xlink:href="#cpgob"/></g><g><use fill="#fff" xlink:href="#cpgoc"/></g><g><use fill="#fff" xlink:href="#cpgod"/></g><g><use fill="#fff" xlink:href="#cpgoe"/></g><g><g><g><use fill="#fff" xlink:href="#cpgof"/></g></g></g></g></g></svg>