<svg xmlns="http://www.w3.org/2000/svg" xmlns:xlink="http://www.w3.org/1999/xlink" width="25" height="18" viewBox="0 0 25 18"><defs><path id="4f6ua" d="M1047.48 165h19.8c.82 0 1.49-.67 1.49-1.49v-3.35h-7.1a3.9 3.9 0 0 1-3.65-2.41c-.2-.49-.31-1-.31-1.54v-.42a3.9 3.9 0 0 1 2.41-3.64c.49-.2 1.01-.31 1.54-.31h7.11v-3.35c0-.82-.67-1.49-1.49-1.49h-19.8c-.82 0-1.48.67-1.48 1.49v15.02c0 .82.66 1.49 1.48 1.49z"/><path id="4f6ub" d="M1062.07 157.31a1.31 1.31 0 1 1 0-2.62 1.31 1.31 0 0 1 0 2.62zm8.34-2.87c0-.62-.5-1.12-1.12-1.12H1061.67a2.47 2.47 0 0 0-2.48 2.47v.42c0 1.36 1.1 2.47 2.47 2.47H1069.3c.62 0 1.12-.5 1.12-1.12z"/></defs><g><g transform="translate(-1046 -147)"><g><use xlink:href="#4f6ua"/></g><g><use xlink:href="#4f6ub"/></g></g></g></svg>