<svg xmlns="http://www.w3.org/2000/svg" xmlns:xlink="http://www.w3.org/1999/xlink" width="35" height="40" viewBox="0 0 35 40"><defs><path id="w0yea" d="M465.13 946.5c0-1.08-.73-1.72-2.02-1.72-.52 0-.88.05-1.07.1v3.46c.23.05.5.07.87.07 1.37 0 2.22-.72 2.22-1.91z"/><path id="w0yeb" d="M473.1 944.81c-.58 0-.95.05-1.17.1v7.67c.22.05.57.05.9.05 2.34.02 3.86-1.3 3.86-4.1.02-2.43-1.37-3.72-3.6-3.72z"/><path id="w0yec" d="M488.12 945.04h-4.4v2.67h4.1v2.16h-4.1v4.7h-2.59v-11.7h6.99zM460.65 964v-7.56h25.25v7.56zm-1.17-20.99c.8-.14 1.92-.24 3.5-.24 1.59 0 2.73.31 3.49.94a3.46 3.46 0 0 1 1.22 2.7c0 1.15-.37 2.13-1.05 2.79-.88.85-2.19 1.23-3.71 1.23-.34 0-.65-.02-.89-.05v4.19h-2.56zm19.96 5.42c0 2.24-.8 3.79-1.9 4.75-1.2 1.02-3.04 1.5-5.27 1.5-1.34 0-2.3-.08-2.94-.17v-11.5c.95-.16 2.2-.24 3.5-.24 2.17 0 3.57.4 4.67 1.25 1.2.9 1.94 2.34 1.94 4.41zm-18.79-20.87h17.73v8.02c0 .44.34.79.76.79h6.76v3.93h-25.25zm27.72 12.74h-.94v-4.64-.08a.78.78 0 0 0-.19-.51l-7.52-8.81a.76.76 0 0 0-.36-.23l-.04-.02a.75.75 0 0 0-.18-.02h-18.49c-.84 0-1.53.7-1.53 1.57v12.74h-.93c-1.21 0-2.19 1-2.19 2.24v11.66c0 1.24.98 2.24 2.19 2.24h.93v7.98c0 .87.69 1.57 1.53 1.57h25.25c.84 0 1.53-.7 1.53-1.57v-7.98h.94c1.2 0 2.18-1 2.18-2.24v-11.66c0-1.24-.98-2.24-2.18-2.24z"/></defs><g><g transform="translate(-456 -926)"><g><use xlink:href="#w0yea"/></g><g><use xlink:href="#w0yeb"/></g><g><use xlink:href="#w0yec"/></g></g></g></svg>