<svg width="64" height="64" viewBox="0 0 64 64" fill="none" xmlns="http://www.w3.org/2000/svg">
<path d="M61.8099 17.3196L45.5051 0.37725C45.2729 0.13625 44.9527 0 44.6182 0H20.3169C17.5973 0 15.3847 2.21175 15.3847 4.93025V22.1539H5.53632C3.50157 22.1539 1.84619 23.8088 1.84619 25.843V44.311C1.84619 46.3451 3.50157 48 5.53632 48H15.3847V59.0784C15.3847 61.7921 17.5973 64 20.3169 64H57.2217C59.9413 64 62.1539 61.7934 62.1539 59.0811V18.1731C62.1539 17.8549 62.0306 17.549 61.8099 17.3196ZM44.9232 3.32262L58.3081 17.2307H44.9232V3.32262ZM5.53632 45.5385C4.85882 45.5385 4.30782 44.9879 4.30782 44.311V25.843C4.30782 25.1661 4.85894 24.6154 5.53632 24.6154H38.7716C39.4491 24.6154 40.0001 25.1661 40.0001 25.843V44.311C40.0001 44.9879 39.4489 45.5385 38.7716 45.5385H5.53632ZM59.6923 59.0811C59.6923 60.4361 58.5839 61.5385 57.2216 61.5385H20.3169C18.9546 61.5385 17.8462 60.435 17.8462 59.0785V48H38.7716C40.8063 48 42.4617 46.3451 42.4617 44.311V25.843C42.4617 23.8088 40.8063 22.1539 38.7716 22.1539H17.8462V4.93025C17.8462 3.56888 18.9546 2.4615 20.3169 2.4615H42.4616V18.4615C42.4616 19.1413 43.0127 19.6922 43.6923 19.6922H59.6923V59.0811Z" fill="#272727"/>
<path d="M16.5598 31.2365C16.1512 30.7052 15.644 30.3602 15.0382 30.2016C14.644 30.0958 13.7978 30.043 12.4997 30.043H9.07422V40.6151H11.2088V36.6271H12.6007C13.5671 36.6271 14.3051 36.5766 14.8147 36.4756C15.1897 36.3938 15.5587 36.2268 15.9217 35.9743C16.2847 35.722 16.584 35.3746 16.8196 34.9323C17.0552 34.4901 17.173 33.9443 17.173 33.2953C17.1728 32.454 16.9685 31.7677 16.5598 31.2365ZM14.7317 34.1463C14.5707 34.382 14.3483 34.555 14.0646 34.6656C13.7808 34.7762 13.2185 34.8315 12.3771 34.8315H11.2088V31.8315H12.2401C13.0093 31.8315 13.5213 31.8555 13.7761 31.9036C14.1222 31.9661 14.4083 32.1223 14.6342 32.3723C14.8602 32.6223 14.9732 32.9397 14.9732 33.3242C14.9733 33.6367 14.8927 33.9107 14.7317 34.1463Z" fill="#272727"/>
<path d="M27.4348 32.9312C27.2041 32.2557 26.8675 31.6848 26.4252 31.2185C25.983 30.7521 25.4516 30.4276 24.8315 30.2448C24.37 30.1102 23.6992 30.043 22.8195 30.043H18.918V40.6151H22.9348C23.7233 40.6151 24.3531 40.5406 24.8242 40.3915C25.4541 40.1896 25.9541 39.9083 26.3242 39.5477C26.8146 39.0717 27.192 38.4492 27.4565 37.68C27.6728 37.0501 27.781 36.3001 27.781 35.43C27.781 34.4396 27.6656 33.6067 27.4348 32.9312ZM25.3578 37.2726C25.2136 37.7462 25.0273 38.0863 24.799 38.293C24.5706 38.4997 24.2833 38.6463 23.9372 38.7328C23.6728 38.8002 23.2425 38.8338 22.6463 38.8338H21.0526V31.8315H22.0117C22.8818 31.8315 23.4661 31.8651 23.7641 31.9325C24.1631 32.019 24.4925 32.1848 24.7521 32.4301C25.0117 32.6753 25.2136 33.0166 25.3578 33.4541C25.5021 33.8916 25.5742 34.519 25.5742 35.3363C25.5742 36.1536 25.5021 36.799 25.3578 37.2726Z" fill="#272727"/>
<path d="M36.8531 31.8315V30.043H29.6055V40.6151H31.7401V36.1223H36.1536V34.3338H31.7401V31.8315H36.8531Z" fill="#272727"/>
</svg>
