<svg xmlns="http://www.w3.org/2000/svg" xmlns:xlink="http://www.w3.org/1999/xlink" width="16" height="16" viewBox="0 0 16 16"><defs><path id="a0c7a" d="M116.16 582.58c-.52-.51-1.17-.51-1.7 0l-1.17 1.19c-.1.1-.2.13-.33.06-.26-.14-.53-.25-.77-.4a12.3 12.3 0 0 1-2.97-2.7 7.02 7.02 0 0 1-1.06-1.7c-.05-.13-.04-.21.06-.32.4-.38.78-.77 1.17-1.17.54-.54.54-1.18 0-1.73l-.93-.93-.96-.96c-.52-.51-1.17-.51-1.7 0-.4.4-.78.8-1.18 1.18-.38.36-.57.8-.6 1.3-.07.83.13 1.62.42 2.38a14.43 14.43 0 0 0 2.56 4.26 15.84 15.84 0 0 0 5.25 4.1c.91.46 1.87.8 2.9.85.71.04 1.33-.14 1.83-.7.34-.37.72-.72 1.08-1.08.53-.54.54-1.2 0-1.72-.62-.64-1.26-1.27-1.9-1.9z"/><path id="a0c7b" d="M115.53 579.93l1.23-.2a5.5 5.5 0 0 0-4.67-4.53l-.17 1.23a4.24 4.24 0 0 1 3.6 3.5z"/><path id="a0c7c" d="M117.45 574.59a9.06 9.06 0 0 0-5.2-2.59l-.17 1.24a7.85 7.85 0 0 1 6.7 6.48l1.22-.21a9.13 9.13 0 0 0-2.55-4.92z"/></defs><g><g transform="translate(-104 -572)"><g><g><use fill="#707070" xlink:href="#a0c7a"/></g><g><use fill="#707070" xlink:href="#a0c7b"/></g><g><use fill="#707070" xlink:href="#a0c7c"/></g></g></g></g></svg>